<?xml version="1.0" encoding="utf-8"?>
<!-- Generator: Adobe Illustrator 27.5.0, SVG Export Plug-In . SVG Version: 6.00 Build 0)  -->
<svg version="1.1" xmlns="http://www.w3.org/2000/svg" xmlns:xlink="http://www.w3.org/1999/xlink" x="0px" y="0px"
	 viewBox="0 0 1700 1270" style="enable-background:new 0 0 1700 1270;" xml:space="preserve">
<g id="background">
	<g>
		
			<rect x="215" y="-215" transform="matrix(-1.836970e-16 1 -1 -1.836970e-16 1485 -215)" style="fill:#FFFFFF;" width="1270" height="1700"/>
	</g>
</g>
<g id="shadow">
	<g style="opacity:0.11;">
		<path style="fill:#272525;" d="M441.712,1017.265c-30.659,0.488-61.316,0.859-91.964,0.951
			c-54.618,0.164-126.207-7.952-166.973,22.949c-20.527,15.558-13.771,46.586,18.789,52.087c9.214,1.557,19.134,1.386,27.777,4.036
			c8.645,2.65,15.493,9.866,10.696,15.377c-2.452,2.817-7.173,4.327-11.699,5.511c-28.623,7.485-60.347,8.435-88.822,16.169
			c-67.658,18.378-55.977,55.318,5.531,67.24c55.313,10.722,116.826,9.239,173.852,9.965
			c333.754,4.248,668.408,9.294,1000.312-5.028c71.58-3.089,142.745-6.99,214.016-10.627c32.617-1.662,73.441-5.998,73.57-15.714
			c0.09-6.766-21.443-11.81-42.668-14.451c-37.171-4.624-85.696-8.648-78.671-23.776c2.563-5.519,14.661-10.582,31.467-13.169
			c12.98-1.998,27.91-2.526,41.982-3.729c14.072-1.203,28.5-3.412,34.417-7.348c15.933-10.6-24.192-16.909-52.437-17.877
			c-33.829-1.159-61.411-8.609-49.749-19.851c8.123-7.83,34.563-13.127,42.603-20.964c3.233-3.152,3.229-6.542,1.08-9.773
			c-21.471-32.278-133.642-29.51-175.444-31.927c-77.335-4.47-155.018-5.324-232.597-5.724
			c-175.985-0.908-351.975,0.608-527.923,2.963C546.497,1015.257,494.101,1016.431,441.712,1017.265z"/>
	</g>
</g>
<g id="object">
	<g>
		<g>
			<g>
				<polygon style="fill:#B99A6F;" points="626.692,971.333 631.675,1016.082 623.139,1027.866 624.006,1035.649 646.812,1028.184 
					657.079,1023.101 646.414,959.975 				"/>
			</g>
			<g>
				<path style="fill:#273140;" d="M631.675,1016.082l-30.15,29.95l2.273,11.565l24.32-2.709L660,1031.64l0.104-16.754l-3.243-2.593
					c0,0-29.505,18.059-31.559,17.303S631.675,1016.082,631.675,1016.082z"/>
			</g>
			<g>
				<polygon style="fill:#B99A6F;" points="770.34,972.459 775.491,1017.189 786.447,1026.766 787.343,1034.545 763.445,1032.37 
					752.301,1029.712 737.355,968.375 				"/>
			</g>
			<g>
				<path style="fill:#273140;" d="M775.491,1017.189l36.085,22.447l0.371,11.781l-24.31,2.799l-36.273-15.529l-3.848-16.307
					l2.581-3.253c0,0,32.796,11.003,34.629,9.806C786.559,1027.738,775.491,1017.189,775.491,1017.189z"/>
			</g>
			<g>
				<polygon style="fill:#273140;" points="602,772 621.514,989 663.514,989 681,619 586,562 				"/>
			</g>
			<g>
				<polygon style="fill:#273140;" points="670,622 707,777 733,984 777,984 768,730 756,553 				"/>
			</g>
			<g>
				<path style="fill:#A0A4A9;" d="M573,390c0,0-31,21-34,36s5,60,17,95s20,130,8,162c35-12,90-30,141-30s73-60,73-60
					s-78-169-111-195S622,375,573,390z"/>
			</g>
			<g>
				<polygon style="fill:#C5CCCC;" points="612.441,375.821 617.155,375.174 625.575,506.721 589.304,456.883 573.753,399.027 
					576.984,389.482 				"/>
			</g>
			<g>
				<polygon style="fill:#273140;" points="611.483,375.649 615.857,376.435 624.534,511.911 648.041,450.655 636.097,441.736 
					650.46,409.549 616.083,370.154 				"/>
			</g>
			<g>
				<polygon style="fill:#273140;" points="580.659,389.347 576.903,390.451 592.137,449.227 625.932,508.67 574.348,461.597 
					579.323,443.812 557.616,435.908 573.644,386.307 				"/>
			</g>
			<g>
				<g>
					<path style="fill:#B99A6F;" d="M607.101,310.273c-21.634-33.423-66.477-7.761-68.35,27.242
						c-1.222,22.833,22.003,46.309,45.506,46.949c0.304,0.811,0.571,1.574,0.738,2.235c0.86,3.403,2.113,6.658,3.463,9.936
						c0.503,1.222,18.832-7.251,20.873-8.205c0.714-0.334,1.501-0.746,1.749-1.476c0.476-1.401-1.669-4.647-2.143-5.954
						c-0.56-1.544-1.119-3.088-1.679-4.632c9.534-7.986,13.581-20.962,12.644-32.917
						C618.961,331.441,613.602,320.316,607.101,310.273z"/>
				</g>
				<g>
					<g>
						<path style="fill:#363636;" d="M567.437,285.061c-1.935,3.268-2.043,7.183-1.916,10.885c0.076,2.211,0.232,4.479,1.197,6.447
							c3.85,7.851,11.97,5.376,18.995,6.471c8.665,1.35,16.937,5.742,23.065,11.644c9.596,9.241,9.995,24.095,10.201,36.863
							c0.073,4.499-0.337,11.317,3.905,14.294c4.31,3.025,11.914,0.506,15.438-2.475c3.22-2.724,5.403-6.825,9.265-8.5
							c4.088-1.773,10.318-1.327,11.331-5.733c0.282-1.226,0.003-2.569,0.453-3.739c1.521-3.955,8.362-1.462,11.093-4.662
							c1.68-1.968,0.893-5.079-0.409-7.371c-1.302-2.293-3.085-4.502-3.225-7.127c-0.121-2.257,1.011-4.345,1.485-6.543
							c0.936-4.342-0.97-9.221-4.606-11.79c-6.76-4.775-16.638-1.1-23.684-5.421c-3.671-2.251-5.873-6.265-7.974-10.06
							c-2.101-3.794-4.477-7.756-8.294-9.733c-4.716-2.443-10.162-0.478-14.983-3.567c-2.833-1.815-5.095-4.531-8.126-5.97
							c-3.995-1.897-11.004-2.378-15.477-2.741C578.077,275.659,571.099,278.876,567.437,285.061z"/>
					</g>
					<g>
						<path style="fill:#363636;" d="M551.39,350.944c2.759,12.083,11.96,23.603,9.045,35.564
							c-2.941,12.071-16.4,17.455-28.141,20.959c-1.931,0.576-26.188,8.536-26.689,8.512c-16.122-0.767-10.048-14.472-14.219-22.243
							c-5.996-11.172-20.33,2.305-23.55-8.991c2.315-1.02,2.8-4.284,1.901-6.711c-0.899-2.428-2.751-4.359-4.093-6.572
							c-3.299-5.439-3.218-12.761,0.199-18.006c6.818-10.466,23.749-11.022,28.995-22.401c3.253-7.057,0.574-15.455,1.261-23.255
							c1.329-15.082,15.822-21.764,25.637-30.861c10.361-9.603,20.764-16.038,35.192-17.167
							c17.886-1.399,34.991,12.92,32.449,31.019c-3.26,23.213-37.678,29.819-38.722,52.826
							C550.544,346.087,550.838,348.527,551.39,350.944z"/>
					</g>
				</g>
			</g>
		</g>
		<g>
			<g>
				<rect x="648.548" y="367.038" style="fill:#647380;" width="428.606" height="571.962"/>
			</g>
			<g style="opacity:0.26;">
				<polygon points="680.524,914.429 686.939,914.429 1065.44,926.169 1055.538,385.253 1037.946,390.314 				"/>
			</g>
			<g>
				<rect x="670.163" y="385.253" style="fill:#FFFFF0;" width="385.375" height="529.175"/>
			</g>
			<g>
				<g>
					<g>
						<path style="fill:#C6D1D1;" d="M912.23,334.933h-2.597v-1.751c0-16.495-15.359-29.868-34.305-29.868h-24.955
							c-18.947,0-34.306,13.372-34.306,29.868v1.751h-2.597c-18.946,0-34.305,13.372-34.305,29.868v33.369h167.37v-33.369
							C946.536,348.305,931.177,334.933,912.23,334.933z M884.899,335.621h-44.096c-4.507,0-8.195-3.688-8.195-8.195
							s3.688-8.195,8.195-8.195h44.096c4.507,0,8.195,3.688,8.195,8.195S889.406,335.621,884.899,335.621z"/>
					</g>
				</g>
				<g style="opacity:0.12;">
					<rect x="779.166" y="382.458" width="167.37" height="15.711"/>
				</g>
			</g>
			<g>
				<rect x="707.028" y="867.405" style="fill:#CBCCCE;" width="106.457" height="2.749"/>
			</g>
			<g>
				<rect x="707.028" y="847.405" style="fill:#CBCCCE;" width="106.457" height="2.749"/>
			</g>
			<g>
				<path style="fill:#CBCCCE;" d="M976.263,847.204c-5.145-1.919-10.844-1.432-15.595,1.004c-0.712-0.374-1.447-0.717-2.217-1.004
					c-7.695-2.87-16.635-0.366-21.778,6.011c-5.025,6.231-5.692,15.161-1.605,22.057c4.149,7,12.369,10.615,20.335,9.15
					c1.897-0.349,3.673-0.981,5.302-1.841c3.784,1.93,8.184,2.636,12.51,1.841c9.153-1.682,15.542-9.889,15.727-19.031
					C988.778,857.313,983.901,850.052,976.263,847.204z M957.285,880.662c-6.343,2.283-13.596,0.355-17.954-4.791
					c-4.424-5.224-5.042-12.898-1.549-18.774c3.476-5.849,10.451-8.979,17.134-7.641c0.906,0.182,1.779,0.439,2.614,0.76
					c-1.114,0.875-2.139,1.875-3.045,2.998c-5.025,6.231-5.692,15.161-1.605,22.057c1.231,2.077,2.822,3.853,4.657,5.289
					C957.451,880.593,957.371,880.631,957.285,880.662z M967.985,865.391c-0.111,5.495-2.837,10.599-7.313,13.57
					c-1.303-0.844-2.499-1.873-3.529-3.089c-4.423-5.224-5.042-12.898-1.549-18.774c1.278-2.15,3.032-3.929,5.067-5.258
					C965.079,854.793,967.872,859.846,967.985,865.391z M975.098,880.662c-3.71,1.335-7.728,1.22-11.299-0.127
					c4.447-3.616,7.209-9.181,7.33-15.145c-0.121-5.986-2.836-11.518-7.339-15.144c2.803-1.075,5.899-1.399,8.939-0.791
					c7.624,1.527,12.913,8.261,13.068,15.935C985.66,872.161,981.555,878.338,975.098,880.662z"/>
			</g>
			<g>
				<g>
					<path style="fill:#3C6084;" d="M752.13,459.66c-0.234,0-0.619,0-1.153,0c-0.536,0-1.088,0-1.655,0c-0.569,0-1.121,0-1.655,0
						c-0.535,0-0.921,0-1.154,0l-0.1-0.05l0.15-0.903l0.251-0.2c0.4,0,0.869-0.025,1.404-0.075c0.534-0.051,0.953-0.176,1.254-0.377
						c0.267-0.2,0.518-0.518,0.752-0.952c0.233-0.435,0.401-1.087,0.502-1.957c0.033-0.501,0.058-1.254,0.075-2.258
						c0.017-1.003,0.025-2.492,0.025-4.466v-12.547c0-0.669,0-1.43,0-2.283c0-0.853-0.034-1.697-0.101-2.535
						c-0.067-0.902-0.226-1.556-0.477-1.957c-0.251-0.4-0.511-0.702-0.777-0.903c-0.301-0.167-0.61-0.292-0.928-0.376
						c-0.318-0.083-0.896-0.125-1.73-0.125l-0.251-0.202l-0.15-0.905l0.1-0.183c0.233,0,0.543,0.014,0.929,0.042
						c0.384,0.028,0.785,0.056,1.203,0.083c0.418,0.028,0.845,0.056,1.279,0.084c0.435,0.028,0.836,0.041,1.204,0.041h1.806
						c0.367,0,0.785,0,1.254,0c0.468,0,0.944,0,1.43,0c0.484,0,0.928,0,1.329,0c0.401,0,0.719,0,0.953,0
						c3.611,0,6.202,0.694,7.775,2.082c1.571,1.388,2.357,3.219,2.357,5.492c0,1.003-0.125,1.89-0.376,2.658
						c-0.251,0.77-0.595,1.447-1.028,2.032c-0.436,0.585-0.92,1.087-1.455,1.504c-0.535,0.419-1.104,0.778-1.705,1.079
						c2.44,0.439,4.321,1.366,5.643,2.782c1.321,1.416,1.981,3.371,1.981,5.866c0,1.686-0.301,3.128-0.902,4.324
						c-0.602,1.198-1.447,2.175-2.533,2.934c-1.087,0.759-2.383,1.324-3.888,1.694c-1.505,0.372-3.16,0.557-4.966,0.557H752.13z
						 M756.744,441.001c1.07,0,2.09-0.066,3.06-0.2c0.97-0.134,1.839-0.484,2.608-1.054c0.735-0.468,1.337-1.145,1.806-2.031
						c0.469-0.886,0.702-1.932,0.702-3.135c0-1.772-0.501-3.127-1.504-4.063c-1.004-0.936-2.425-1.404-4.264-1.404h-4.515
						c-0.067,0.971-0.108,1.789-0.125,2.458c-0.018,0.669-0.043,1.254-0.075,1.756c-0.034,0.501-0.051,0.953-0.051,1.354
						c0,0.401,0,0.786,0,1.154v3.109c0,0.77,0.033,1.305,0.101,1.605c0.066,0.301,0.317,0.451,0.752,0.451H756.744z
						 M754.387,442.857c0,0.937,0,2.04,0,3.31c0,1.272,0.008,2.517,0.025,3.737c0.017,1.221,0.033,2.316,0.05,3.285
						c0.017,0.971,0.042,1.623,0.075,1.956c0.067,0.903,0.251,1.455,0.552,1.655c0.302,0.201,0.702,0.302,1.204,0.302h3.059
						c0.803,0,1.681-0.1,2.634-0.302c0.953-0.2,1.847-0.552,2.684-1.053c0.835-0.502,1.537-1.204,2.107-2.106
						c0.568-0.903,0.852-2.057,0.852-3.461c0-1.204-0.218-2.266-0.652-3.186c-0.435-0.919-1.036-1.681-1.806-2.282
						c-0.769-0.602-1.664-1.061-2.684-1.38c-1.021-0.317-2.132-0.476-3.335-0.476H754.387z"/>
					<path style="fill:#3C6084;" d="M758.801,460.16h-12.407l-0.535-0.268l0.242-1.457l0.538-0.429h0.175
						c0.387,0,0.841-0.024,1.358-0.073c0.449-0.043,0.793-0.142,1.022-0.295c0.185-0.14,0.392-0.405,0.59-0.773
						c0.203-0.378,0.354-0.976,0.445-1.777c0.031-0.471,0.055-1.216,0.072-2.209c0.017-1.001,0.025-2.487,0.025-4.457v-14.83
						c0-0.827-0.033-1.667-0.099-2.496c-0.077-1.022-0.261-1.505-0.402-1.731c-0.218-0.346-0.438-0.605-0.654-0.769
						c-0.204-0.107-0.477-0.219-0.755-0.292c-0.189-0.049-0.621-0.108-1.603-0.108h-0.177l-0.536-0.433l-0.21-1.263l0.324-0.595
						h0.297c0.242,0,0.564,0.014,0.965,0.043c0.383,0.028,0.783,0.056,1.199,0.083l1.279,0.084c0.423,0.027,0.814,0.04,1.172,0.04
						h6.771c3.719,0,6.446,0.742,8.106,2.207c1.677,1.48,2.526,3.455,2.526,5.867c0,1.053-0.135,1.999-0.4,2.814
						c-0.267,0.815-0.637,1.547-1.103,2.175c-0.463,0.622-0.983,1.16-1.549,1.601c-0.214,0.167-0.434,0.326-0.659,0.476
						c1.942,0.528,3.504,1.417,4.654,2.65c1.404,1.504,2.116,3.593,2.116,6.207c0,1.758-0.321,3.288-0.956,4.549
						c-0.636,1.266-1.542,2.314-2.693,3.119c-1.134,0.791-2.498,1.387-4.055,1.77C762.354,459.968,760.643,460.16,758.801,460.16z
						 M746.994,459.16h11.807c1.761,0,3.392-0.183,4.846-0.542c1.438-0.354,2.689-0.898,3.722-1.619
						c1.014-0.708,1.811-1.633,2.373-2.748c0.563-1.12,0.849-2.5,0.849-4.1c0-2.353-0.621-4.212-1.847-5.525
						c-1.24-1.329-3.046-2.214-5.366-2.631l-1.482-0.267l1.347-0.673c0.57-0.285,1.115-0.63,1.62-1.025
						c0.496-0.386,0.954-0.86,1.362-1.409c0.4-0.54,0.722-1.176,0.954-1.889c0.233-0.714,0.352-1.556,0.352-2.503
						c0-2.143-0.716-3.817-2.188-5.117c-1.471-1.299-3.976-1.957-7.443-1.957h-6.771c-0.378,0-0.79-0.013-1.236-0.042l-1.281-0.084
						c-0.418-0.027-0.82-0.055-1.206-0.083c-0.156-0.012-0.299-0.02-0.43-0.027l0.046,0.277c0.774,0.007,1.316,0.053,1.65,0.141
						c0.359,0.095,0.71,0.236,1.045,0.422c0.373,0.275,0.676,0.625,0.958,1.075c0.297,0.475,0.477,1.189,0.552,2.185
						c0.067,0.853,0.102,1.719,0.102,2.572v14.83c0,1.978-0.009,3.47-0.025,4.474c-0.018,1.016-0.043,1.776-0.076,2.283
						c-0.111,0.965-0.294,1.663-0.56,2.16c-0.272,0.504-0.564,0.869-0.893,1.115c-0.394,0.266-0.88,0.416-1.507,0.476
						c-0.462,0.043-0.88,0.068-1.245,0.075L746.994,459.16z M759.352,457.603h-3.059c-0.599,0-1.098-0.13-1.482-0.386
						c-0.446-0.297-0.691-0.943-0.773-2.034c-0.033-0.336-0.06-1.009-0.076-1.984c-0.017-0.97-0.033-2.065-0.05-3.287
						c-0.018-1.223-0.025-2.47-0.025-3.744v-3.81h5.266c1.249,0,2.421,0.168,3.483,0.498c1.073,0.335,2.029,0.827,2.843,1.464
						c0.827,0.646,1.483,1.475,1.95,2.462c0.465,0.984,0.7,2.128,0.7,3.399c0,1.493-0.313,2.747-0.93,3.728
						c-0.608,0.965-1.373,1.728-2.272,2.269c-0.884,0.529-1.839,0.903-2.839,1.113C761.107,457.497,760.187,457.603,759.352,457.603
						z M754.887,443.357v2.81c0,1.268,0.008,2.512,0.025,3.73c0.017,1.22,0.033,2.315,0.05,3.283
						c0.017,0.949,0.041,1.594,0.072,1.915c0.084,1.111,0.321,1.282,0.332,1.289c0.217,0.145,0.528,0.218,0.927,0.218h3.059
						c0.765,0,1.616-0.098,2.53-0.291c0.892-0.188,1.743-0.521,2.53-0.992c0.763-0.459,1.416-1.113,1.94-1.944
						c0.515-0.817,0.775-1.893,0.775-3.194c0-1.123-0.203-2.123-0.604-2.972c-0.399-0.846-0.959-1.553-1.661-2.103
						c-0.719-0.562-1.568-0.997-2.525-1.296c-0.966-0.301-2.038-0.453-3.186-0.453H754.887z M756.744,441.501h-1.505
						c-0.951,0-1.185-0.59-1.24-0.844c-0.075-0.337-0.112-0.897-0.112-1.713v-4.264c0-0.41,0.017-0.874,0.052-1.388
						c0.032-0.494,0.057-1.073,0.074-1.734c0.017-0.675,0.059-1.5,0.126-2.479l0.032-0.466h4.981c1.96,0,3.509,0.518,4.604,1.538
						c1.104,1.031,1.663,2.522,1.663,4.43c0,1.282-0.256,2.415-0.76,3.368c-0.508,0.96-1.174,1.707-1.979,2.22
						c-0.804,0.597-1.759,0.982-2.809,1.127C758.887,441.432,757.834,441.501,756.744,441.501z M755.106,429.613
						c-0.049,0.761-0.079,1.417-0.093,1.971c-0.018,0.677-0.044,1.268-0.076,1.775c-0.033,0.49-0.05,0.931-0.05,1.321v4.264
						c0,0.91,0.048,1.316,0.089,1.496c0.003,0.017,0.06,0.061,0.264,0.061h1.505c1.045,0,2.051-0.066,2.991-0.195
						c0.882-0.122,1.683-0.445,2.379-0.961c0.686-0.438,1.236-1.058,1.661-1.862c0.428-0.808,0.645-1.784,0.645-2.901
						c0-1.644-0.44-2.853-1.345-3.698c-0.904-0.842-2.225-1.27-3.923-1.27H755.106z"/>
				</g>
				<g>
					<path style="fill:#3C6084;" d="M809.361,426.605l-0.15,0.903l-0.201,0.2c-0.535,0-1.045,0.025-1.529,0.075
						c-0.485,0.05-0.878,0.192-1.179,0.427c-0.269,0.234-0.52,0.535-0.753,0.902c-0.234,0.368-0.385,1.02-0.451,1.956
						c-0.033,0.401-0.059,0.803-0.075,1.204c-0.018,0.401-0.034,0.887-0.05,1.455c-0.018,0.568-0.025,1.254-0.025,2.056
						c0,0.803,0,1.79,0,2.96v9.63c0,1.64-0.243,3.169-0.728,4.59c-0.485,1.422-1.229,2.658-2.231,3.712
						c-1.004,1.054-2.267,1.881-3.787,2.482c-1.522,0.603-3.303,0.903-5.342,0.903c-2.342,0-4.323-0.301-5.944-0.903
						c-1.622-0.602-2.934-1.429-3.938-2.482c-1.003-1.054-1.73-2.29-2.182-3.712c-0.452-1.421-0.678-2.95-0.678-4.59v-9.63
						c0-1.17,0-2.157,0-2.96c0-0.802,0-1.487,0-2.056c0-0.568-0.008-1.054-0.024-1.455c-0.018-0.401-0.043-0.803-0.075-1.204
						c-0.067-0.902-0.226-1.546-0.477-1.931c-0.251-0.384-0.511-0.693-0.777-0.928c-0.302-0.234-0.686-0.377-1.154-0.427
						c-0.469-0.05-0.97-0.075-1.505-0.075l-0.25-0.2l-0.151-0.903l0.101-0.05c0.233,0,0.618,0,1.154,0c0.534,0,1.086,0,1.654,0
						c0.568,0,1.12,0,1.655,0c0.535,0,0.92,0,1.154,0h0.953c0.233,0,0.618,0,1.153,0c0.534,0,1.086,0,1.655,0
						c0.568,0,1.12,0,1.655,0c0.534,0,0.919,0,1.153,0l0.101,0.05l-0.15,0.903l-0.2,0.2c-0.536,0-1.046,0.025-1.53,0.075
						c-0.485,0.05-0.878,0.192-1.179,0.427c-0.269,0.234-0.519,0.535-0.753,0.902c-0.233,0.368-0.385,1.02-0.451,1.956
						c-0.033,0.469-0.059,0.903-0.075,1.305c-0.017,0.401-0.033,0.87-0.05,1.404c-0.018,0.535-0.025,1.188-0.025,1.956
						c0,0.77,0,1.756,0,2.959v8.276c0,3.611,0.81,6.203,2.433,7.775c1.622,1.571,3.87,2.357,6.747,2.357
						c2.875,0,5.132-0.786,6.771-2.357c1.639-1.572,2.458-4.164,2.458-7.775v-8.276c0-1.203,0-2.189,0-2.959
						c0-0.769-0.009-1.421-0.024-1.956c-0.018-0.534-0.034-1.003-0.051-1.404c-0.017-0.401-0.042-0.836-0.075-1.305
						c-0.067-0.936-0.226-1.588-0.477-1.956c-0.251-0.367-0.51-0.668-0.777-0.902c-0.268-0.234-0.644-0.377-1.129-0.427
						c-0.484-0.05-0.995-0.075-1.529-0.075l-0.251-0.2l-0.15-0.903l0.101-0.2c0.233,0,0.584,0.024,1.053,0.075
						c0.468,0.05,0.961,0.075,1.481,0.075c0.518,0,1.011,0,1.479,0c0.468,0,0.818,0,1.053,0h1.104c0.233,0,0.602,0,1.103,0
						c0.502,0,1.028,0,1.58,0c0.552,0,1.079,0,1.58,0c0.502,0,0.869,0,1.103,0L809.361,426.605z"/>
					<path style="fill:#3C6084;" d="M792.859,460.561c-2.392,0-4.45-0.314-6.118-0.934c-1.687-0.626-3.075-1.503-4.126-2.607
						c-1.052-1.105-1.824-2.419-2.296-3.905c-0.465-1.462-0.701-3.058-0.701-4.741v-14.646c0-0.56-0.008-1.039-0.024-1.435
						c-0.017-0.394-0.042-0.789-0.073-1.185c-0.076-1.017-0.258-1.484-0.398-1.697c-0.225-0.344-0.456-0.621-0.688-0.825
						c-0.203-0.157-0.506-0.266-0.877-0.306c-0.452-0.048-0.94-0.072-1.452-0.072h-0.176l-0.536-0.43l-0.244-1.457l0.538-0.267
						h12.423l0.537,0.267l-0.237,1.427l-0.46,0.46h-0.207c-0.513,0-1.011,0.024-1.48,0.072c-0.387,0.04-0.697,0.149-0.922,0.324
						c-0.208,0.183-0.431,0.449-0.639,0.776c-0.129,0.204-0.3,0.669-0.374,1.723c-0.033,0.464-0.059,0.893-0.074,1.29
						c-0.017,0.4-0.033,0.867-0.05,1.399c-0.018,0.531-0.025,1.179-0.025,1.94v11.235c0,3.454,0.768,5.949,2.28,7.416
						c1.518,1.471,3.672,2.217,6.399,2.217c2.728,0,4.89-0.746,6.425-2.219c1.528-1.467,2.304-3.961,2.304-7.414v-11.235
						c0-0.763-0.009-1.41-0.024-1.941c-0.018-0.531-0.034-0.998-0.051-1.398c-0.016-0.397-0.041-0.826-0.074-1.29
						c-0.075-1.05-0.254-1.509-0.391-1.71c-0.227-0.331-0.46-0.603-0.693-0.808c-0.188-0.164-0.474-0.267-0.851-0.306
						c-0.469-0.048-0.966-0.072-1.479-0.072h-0.175l-0.538-0.429l-0.208-1.254l0.312-0.621h0.309c0.245,0,0.614,0.024,1.107,0.078
						c0.45,0.048,0.931,0.072,1.427,0.072h9.12l0.537,0.267l-0.237,1.428l-0.462,0.459h-0.206c-0.513,0-1.01,0.024-1.479,0.072
						c-0.387,0.04-0.697,0.149-0.922,0.324c-0.21,0.184-0.432,0.451-0.639,0.776c-0.13,0.203-0.3,0.667-0.374,1.723
						c-0.033,0.4-0.059,0.795-0.074,1.189c-0.018,0.4-0.034,0.883-0.05,1.448c-0.018,0.565-0.025,1.246-0.025,2.042v12.59
						c0,1.685-0.254,3.283-0.754,4.751c-0.507,1.484-1.295,2.795-2.343,3.896c-1.049,1.101-2.383,1.977-3.966,2.602
						C796.812,460.246,794.953,460.561,792.859,460.561z M776.313,427.21c0.472,0.006,0.926,0.032,1.351,0.077
						c0.56,0.06,1.033,0.237,1.408,0.529c0.324,0.283,0.615,0.63,0.89,1.049c0.3,0.46,0.482,1.169,0.557,2.167
						c0.032,0.404,0.058,0.812,0.076,1.22c0.017,0.408,0.024,0.9,0.024,1.476v14.646c0,1.581,0.22,3.074,0.654,4.439
						c0.426,1.341,1.121,2.524,2.067,3.519c0.944,0.992,2.206,1.786,3.749,2.358c1.557,0.579,3.498,0.872,5.77,0.872
						c1.967,0,3.702-0.292,5.158-0.868c1.446-0.572,2.66-1.367,3.608-2.362c0.947-0.995,1.661-2.183,2.12-3.528
						c0.466-1.364,0.701-2.854,0.701-4.429v-12.59c0-0.808,0.008-1.498,0.025-2.071c0.016-0.569,0.032-1.058,0.05-1.461
						c0.017-0.407,0.043-0.816,0.077-1.224c0.072-1.024,0.245-1.74,0.527-2.184c0.258-0.405,0.543-0.746,0.846-1.011
						c0.396-0.31,0.88-0.488,1.457-0.547c0.423-0.044,0.867-0.069,1.324-0.076l0.025-0.155h-8.521c-0.531,0-1.047-0.026-1.533-0.078
						c-0.204-0.021-0.384-0.039-0.54-0.051l0.047,0.283c0.475,0.006,0.936,0.031,1.374,0.077c0.588,0.061,1.061,0.244,1.407,0.548
						c0.298,0.26,0.587,0.596,0.861,0.996c0.304,0.446,0.487,1.166,0.563,2.202c0.033,0.475,0.059,0.914,0.076,1.32
						c0.017,0.402,0.033,0.873,0.051,1.408c0.016,0.541,0.024,1.198,0.024,1.973v11.235c0,3.736-0.879,6.474-2.612,8.136
						c-1.728,1.657-4.122,2.497-7.116,2.497c-2.996,0-5.384-0.841-7.095-2.498c-1.716-1.663-2.585-4.399-2.585-8.135v-11.235
						c0-0.775,0.008-1.433,0.025-1.973c0.017-0.535,0.033-1.006,0.05-1.408c0.018-0.406,0.043-0.846,0.076-1.319
						c0.073-1.027,0.246-1.743,0.528-2.189c0.261-0.409,0.545-0.749,0.846-1.012c0.397-0.31,0.88-0.488,1.457-0.547
						c0.423-0.044,0.867-0.069,1.324-0.076l0.025-0.155h-11.226L776.313,427.21z"/>
				</g>
				<g>
					<path style="fill:#3C6084;" d="M818.59,434.029c0,0.936,0.167,1.714,0.502,2.332c0.334,0.619,0.844,1.162,1.529,1.63
						c0.685,0.469,1.556,0.895,2.608,1.279c1.054,0.385,2.299,0.795,3.737,1.228c1.236,0.401,2.457,0.854,3.661,1.354
						c1.204,0.502,2.282,1.147,3.235,1.932c0.953,0.786,1.713,1.739,2.282,2.858c0.568,1.121,0.852,2.483,0.852,4.089
						c0,1.705-0.334,3.151-1.003,4.338c-0.669,1.188-1.555,2.149-2.658,2.885c-1.104,0.735-2.383,1.27-3.838,1.604
						c-1.454,0.334-2.984,0.502-4.589,0.502c-2.074,0-3.963-0.234-5.668-0.702c-1.706-0.468-3.244-1.054-4.615-1.756l-0.2-0.652
						l0.852-5.366h1.254l0.251,0.301c0.167,2.04,0.986,3.536,2.458,4.489c1.471,0.953,3.478,1.43,6.018,1.43
						c2.608,0,4.572-0.594,5.894-1.781c1.321-1.186,1.981-2.733,1.981-4.64c0-1.17-0.251-2.148-0.752-2.934
						c-0.502-0.786-1.162-1.455-1.982-2.007c-0.819-0.552-1.756-1.011-2.808-1.379c-1.054-0.368-2.115-0.735-3.186-1.104
						c-1.338-0.435-2.583-0.911-3.736-1.43c-1.154-0.519-2.157-1.129-3.01-1.831c-0.853-0.702-1.523-1.538-2.007-2.508
						c-0.484-0.97-0.727-2.123-0.727-3.461c0-1.571,0.275-2.9,0.827-3.988c0.552-1.086,1.313-1.973,2.282-2.658
						c0.97-0.685,2.098-1.179,3.386-1.479c1.287-0.301,2.684-0.451,4.188-0.451c1.806,0,3.511,0.167,5.116,0.501
						c1.604,0.335,2.909,0.736,3.912,1.204l0.201,0.552l-0.702,4.464h-1.405l-0.25-0.25c-0.067-0.869-0.352-1.572-0.853-2.107
						c-0.501-0.534-1.096-0.953-1.78-1.254c-0.686-0.301-1.422-0.501-2.207-0.602c-0.786-0.101-1.479-0.15-2.082-0.15
						c-2.174,0-3.879,0.477-5.116,1.43S818.59,432.257,818.59,434.029z"/>
					<path style="fill:#3C6084;" d="M824.91,460.561c-2.108,0-4.059-0.242-5.8-0.72c-1.729-0.474-3.314-1.077-4.711-1.793
						l-0.189-0.097l-0.296-0.965l0.938-5.902h1.915l0.502,0.603l0.013,0.157c0.155,1.894,0.885,3.238,2.231,4.11
						c1.382,0.895,3.315,1.35,5.747,1.35c2.469,0,4.339-0.557,5.56-1.653c1.222-1.097,1.815-2.493,1.815-4.268
						c0-1.067-0.227-1.964-0.674-2.665c-0.462-0.725-1.081-1.351-1.839-1.86c-0.777-0.524-1.685-0.969-2.694-1.322
						c-1.053-0.367-2.113-0.734-3.184-1.103c-1.339-0.435-2.613-0.923-3.778-1.446c-1.188-0.534-2.239-1.174-3.122-1.901
						c-0.905-0.745-1.624-1.643-2.137-2.67c-0.518-1.035-0.779-2.275-0.779-3.685c0-1.644,0.297-3.062,0.881-4.215
						c0.588-1.155,1.408-2.11,2.439-2.84c1.021-0.721,2.219-1.245,3.561-1.559c1.317-0.308,2.766-0.464,4.302-0.464
						c1.831,0,3.587,0.172,5.218,0.512c1.637,0.341,2.989,0.759,4.022,1.24l0.188,0.088l0.316,0.867l-0.788,5.014h-2.04L832,432.848
						l-0.014-0.184c-0.06-0.761-0.295-1.351-0.72-1.805c-0.453-0.482-0.997-0.865-1.617-1.138c-0.637-0.279-1.333-0.47-2.069-0.564
						c-0.759-0.098-1.438-0.147-2.019-0.147c-2.051,0-3.669,0.446-4.812,1.326c-1.117,0.86-1.66,2.068-1.66,3.691
						c0,0.849,0.148,1.553,0.442,2.094c0.294,0.546,0.756,1.035,1.372,1.455c0.648,0.443,1.488,0.854,2.497,1.223
						c1.054,0.385,2.302,0.795,3.711,1.22c1.247,0.404,2.492,0.865,3.709,1.371c1.241,0.518,2.372,1.193,3.361,2.008
						c1,0.825,1.811,1.84,2.409,3.018c0.603,1.188,0.907,2.639,0.907,4.315c0,1.785-0.359,3.327-1.067,4.583
						c-0.705,1.252-1.653,2.28-2.816,3.056c-1.15,0.767-2.497,1.33-4.003,1.676C828.124,460.389,826.543,460.561,824.91,460.561z
						 M815.042,457.253c1.292,0.644,2.748,1.19,4.332,1.624c1.655,0.454,3.519,0.684,5.536,0.684c1.558,0,3.063-0.165,4.477-0.489
						c1.389-0.318,2.624-0.835,3.673-1.533c1.031-0.688,1.873-1.601,2.5-2.714c0.623-1.105,0.938-2.481,0.938-4.093
						c0-1.518-0.268-2.817-0.799-3.862c-0.536-1.054-1.261-1.962-2.154-2.699c-0.912-0.752-1.959-1.376-3.109-1.855
						c-1.191-0.496-2.411-0.947-3.623-1.341c-1.417-0.427-2.684-0.844-3.755-1.234c-1.087-0.396-2.002-0.846-2.719-1.336
						c-0.749-0.512-1.316-1.119-1.688-1.806c-0.372-0.688-0.562-1.553-0.562-2.569c0-1.928,0.69-3.435,2.051-4.484
						c1.32-1.018,3.145-1.533,5.421-1.533c0.623,0,1.345,0.052,2.145,0.154c0.831,0.107,1.62,0.322,2.345,0.64
						c0.744,0.327,1.398,0.788,1.943,1.37c0.537,0.572,0.862,1.311,0.967,2.199h0.75l0.616-3.914l-0.085-0.233
						c-0.94-0.413-2.155-0.777-3.617-1.083c-1.563-0.325-3.251-0.49-5.014-0.49c-1.46,0-2.831,0.147-4.074,0.439
						c-1.217,0.283-2.297,0.755-3.212,1.4c-0.897,0.635-1.612,1.468-2.125,2.477c-0.513,1.011-0.772,2.276-0.772,3.762
						c0,1.253,0.227,2.343,0.674,3.237c0.45,0.901,1.082,1.69,1.878,2.346c0.814,0.671,1.789,1.263,2.896,1.761
						c1.132,0.509,2.372,0.983,3.685,1.41c1.079,0.371,2.142,0.738,3.196,1.107c1.091,0.381,2.074,0.864,2.923,1.435
						c0.872,0.588,1.587,1.312,2.124,2.152c0.551,0.864,0.83,1.941,0.83,3.203c0,2.046-0.723,3.732-2.147,5.012
						c-1.409,1.267-3.505,1.909-6.228,1.909c-2.628,0-4.744-0.508-6.29-1.51c-1.563-1.013-2.461-2.596-2.67-4.709l-0.002-0.001
						h-0.593l-0.768,4.83L815.042,457.253z"/>
				</g>
				<g>
					<path style="fill:#3C6084;" d="M854.854,426.605l-0.15,0.903l-0.2,0.2c-0.535,0-1.046,0.025-1.53,0.075
						c-0.485,0.05-0.878,0.192-1.179,0.427c-0.268,0.234-0.518,0.535-0.752,0.902c-0.234,0.368-0.385,1.02-0.452,1.956
						c-0.033,0.469-0.059,0.903-0.075,1.305c-0.017,0.401-0.033,0.87-0.05,1.404c-0.018,0.535-0.025,1.188-0.025,1.956
						c0,0.77,0,1.756,0,2.959v9.23c0,1.204,0,2.182,0,2.934c0,0.752,0.008,1.379,0.025,1.881c0.017,0.502,0.033,0.928,0.05,1.279
						c0.017,0.351,0.042,0.727,0.075,1.128c0.067,0.936,0.218,1.589,0.452,1.957c0.233,0.368,0.484,0.669,0.752,0.902
						c0.301,0.234,0.693,0.376,1.179,0.427c0.484,0.05,0.995,0.075,1.53,0.075l0.2,0.2l0.15,0.903l-0.101,0.05
						c-0.233,0-0.619,0-1.153,0c-0.535,0-1.087,0-1.655,0c-0.568,0-1.12,0-1.655,0c-0.535,0-0.92,0-1.153,0h-0.953
						c-0.234,0-0.619,0-1.153,0c-0.536,0-1.088,0-1.655,0c-0.569,0-1.121,0-1.655,0c-0.535,0-0.921,0-1.154,0l-0.1-0.05l0.15-0.903
						l0.251-0.2c0.534,0,1.035-0.025,1.504-0.075c0.469-0.051,0.854-0.192,1.154-0.427c0.267-0.233,0.526-0.534,0.777-0.902
						c0.251-0.368,0.409-1.021,0.477-1.957c0-0.233,0.008-0.509,0.024-0.827c0.017-0.317,0.033-0.71,0.051-1.179
						c0.017-0.468,0.025-1.036,0.025-1.705c0-0.669,0-1.505,0-2.509v-10.182c0-1.17,0-2.157,0-2.96c0-0.802-0.009-1.487-0.025-2.056
						c-0.018-0.568-0.034-1.054-0.051-1.455c-0.017-0.401-0.042-0.803-0.075-1.204c-0.067-0.869-0.218-1.505-0.451-1.905
						c-0.234-0.401-0.485-0.719-0.752-0.953c-0.301-0.234-0.686-0.377-1.154-0.427c-0.469-0.05-0.97-0.075-1.504-0.075l-0.251-0.2
						l-0.15-0.903l0.1-0.05c0.233,0,0.619,0,1.154,0c0.534,0,1.086,0,1.655,0c0.567,0,1.119,0,1.655,0c0.534,0,0.919,0,1.153,0
						h0.953c0.233,0,0.618,0,1.153,0c0.535,0,1.087,0,1.655,0c0.568,0,1.12,0,1.655,0c0.534,0,0.92,0,1.153,0L854.854,426.605z"/>
					<path style="fill:#3C6084;" d="M854.871,460.16h-12.424l-0.535-0.268l0.242-1.457l0.538-0.429h0.175
						c0.511,0,0.999-0.024,1.451-0.072c0.373-0.04,0.676-0.149,0.899-0.324c0.214-0.188,0.447-0.459,0.672-0.789
						c0.137-0.201,0.315-0.66,0.391-1.712c-0.001-0.205,0.007-0.488,0.024-0.817c0.017-0.315,0.032-0.705,0.05-1.171
						c0.017-0.462,0.025-1.024,0.025-1.686v-15.65c0-0.796-0.009-1.477-0.025-2.041c-0.018-0.565-0.034-1.049-0.051-1.449
						c-0.016-0.395-0.041-0.789-0.073-1.184c-0.077-0.986-0.252-1.466-0.385-1.694c-0.206-0.351-0.425-0.631-0.65-0.829
						c-0.202-0.157-0.505-0.266-0.877-0.306c-0.452-0.048-0.94-0.072-1.451-0.072h-0.175l-0.538-0.429l-0.242-1.457l0.535-0.268
						h12.424l0.537,0.267l-0.237,1.427l-0.46,0.46h-0.207c-0.513,0-1.011,0.024-1.479,0.072c-0.387,0.04-0.697,0.149-0.922,0.324
						c-0.209,0.185-0.432,0.451-0.638,0.776c-0.129,0.203-0.299,0.667-0.375,1.724c-0.033,0.463-0.058,0.892-0.074,1.289
						c-0.017,0.4-0.033,0.867-0.05,1.399c-0.018,0.531-0.025,1.179-0.025,1.94v15.123c0,0.745,0.008,1.366,0.025,1.863
						c0.017,0.5,0.033,0.924,0.049,1.273c0.017,0.345,0.042,0.716,0.074,1.11c0.077,1.063,0.247,1.526,0.376,1.73
						c0.206,0.326,0.428,0.593,0.659,0.794c0.202,0.157,0.513,0.266,0.901,0.307c0.468,0.048,0.966,0.072,1.479,0.072h0.207
						l0.46,0.46l0.237,1.427L854.871,460.16z M843.048,459.16h11.225l-0.025-0.155c-0.457-0.007-0.901-0.032-1.324-0.076
						c-0.579-0.061-1.062-0.238-1.436-0.529c-0.324-0.282-0.609-0.623-0.866-1.029c-0.282-0.441-0.455-1.158-0.529-2.188
						c-0.033-0.401-0.059-0.784-0.075-1.141c-0.018-0.353-0.034-0.781-0.051-1.286c-0.018-0.506-0.025-1.139-0.025-1.898v-15.123
						c0-0.775,0.008-1.433,0.025-1.973c0.017-0.535,0.033-1.006,0.05-1.408c0.018-0.406,0.043-0.846,0.076-1.319
						c0.074-1.031,0.248-1.747,0.529-2.19c0.258-0.404,0.541-0.744,0.845-1.01c0.396-0.311,0.88-0.489,1.457-0.548
						c0.423-0.044,0.867-0.069,1.324-0.076l0.025-0.155h-11.225l0.025,0.154c0.472,0.006,0.925,0.032,1.351,0.077
						c0.561,0.06,1.034,0.237,1.409,0.529c0.329,0.289,0.616,0.651,0.876,1.096c0.274,0.471,0.444,1.164,0.518,2.118
						c0.034,0.406,0.059,0.814,0.077,1.223c0.017,0.402,0.033,0.89,0.051,1.46c0.017,0.573,0.025,1.264,0.025,2.071v15.65
						c0,0.676-0.009,1.25-0.025,1.723c-0.018,0.473-0.035,0.868-0.052,1.188c-0.016,0.308-0.023,0.575-0.023,0.801
						c-0.076,1.072-0.26,1.793-0.563,2.238c-0.272,0.4-0.563,0.735-0.861,0.997c-0.394,0.309-0.868,0.487-1.43,0.548
						c-0.426,0.045-0.88,0.071-1.352,0.077L843.048,459.16z"/>
				</g>
				<g>
					<path style="fill:#3C6084;" d="M893.526,426.605l-0.101,0.883l-0.251,0.197c-0.535,0-1.045,0.025-1.529,0.075
						c-0.485,0.05-0.861,0.192-1.129,0.427s-0.51,0.535-0.727,0.904c-0.218,0.368-0.359,1.021-0.426,1.957
						c-0.034,0.469-0.059,0.904-0.075,1.306c-0.018,0.401-0.034,0.869-0.051,1.405c-0.017,0.535-0.024,1.188-0.024,1.957
						s0,1.758,0,2.961v8.835c0,1.874,0.008,3.414,0.024,4.618c0.017,1.205,0.033,2.234,0.051,3.087
						c0.017,0.853,0.05,1.615,0.1,2.284c0.051,0.669,0.108,1.406,0.176,2.208l-0.401,0.151h-3.109l-0.502-0.604l-17.857-26.833
						c0,0.335-0.009,0.669-0.025,1.003c-0.017,0.335-0.024,0.745-0.024,1.23c0,0.485,0,1.045,0,1.68c0,0.636,0,1.422,0,2.357v9.23
						c0,0.401,0,0.928,0,1.58c0,0.652,0.008,1.329,0.024,2.031c0.017,0.702,0.033,1.38,0.051,2.032
						c0.017,0.651,0.041,1.179,0.075,1.579c0.066,0.837,0.208,1.464,0.426,1.882c0.218,0.418,0.493,0.744,0.828,0.978
						c0.267,0.201,0.618,0.335,1.053,0.401c0.434,0.067,0.986,0.1,1.655,0.1l0.251,0.2l0.15,0.903l-0.1,0.05
						c-0.234,0-0.595,0-1.079,0c-0.484,0-0.995,0-1.529,0c-0.535,0-1.046,0-1.53,0c-0.485,0-0.845,0-1.078,0h-0.953
						c-0.234,0-0.619,0-1.153,0c-0.536,0-1.088,0-1.655,0c-0.569,0-1.121,0-1.655,0c-0.535,0-0.921,0-1.154,0l-0.1-0.05l0.15-0.903
						l0.251-0.2c0.602,0,1.111-0.025,1.529-0.075c0.418-0.051,0.794-0.192,1.129-0.427c0.233-0.168,0.476-0.443,0.726-0.828
						c0.251-0.385,0.427-1.063,0.527-2.033c0.033-0.234,0.058-0.51,0.075-0.828c0.017-0.318,0.025-0.711,0.025-1.18
						c0-0.469,0-1.038,0-1.707c0-0.669,0-1.506,0-2.51v-10.189c0-1.171,0-2.159,0-2.962c0-0.803,0-1.489,0-2.059
						c0-0.568-0.009-1.054-0.025-1.455c-0.018-0.401-0.042-0.804-0.075-1.205c-0.067-0.702-0.218-1.297-0.451-1.782
						c-0.234-0.484-0.502-0.845-0.803-1.079c-0.301-0.234-0.678-0.377-1.129-0.427c-0.451-0.05-0.962-0.075-1.529-0.075
						l-0.251-0.197l-0.15-0.883l0.1-0.2c0.233,0,0.577,0.014,1.028,0.042c0.452,0.028,0.911,0.056,1.38,0.083
						c0.468,0.028,0.928,0.056,1.379,0.084c0.451,0.028,0.794,0.041,1.028,0.041h1.756c0.268,0,0.644,0,1.129,0
						c0.483,0,0.877-0.05,1.179-0.15l0.25,0.15c0.134,0.469,0.409,1.112,0.828,1.932c0.418,0.819,0.919,1.73,1.505,2.733
						c0.584,1.003,1.22,2.074,1.906,3.21c0.685,1.138,1.379,2.258,2.081,3.361c2.541,4.08,4.757,7.406,6.646,9.981
						c1.889,2.575,3.101,4.247,3.636,5.016c0-0.233,0.008-0.451,0.025-0.652c0.017-0.2,0.025-0.435,0.025-0.702
						c0-0.269,0-0.604,0-1.005s0-0.938,0-1.607V438.73c0-1.171,0-2.158,0-2.962c0-0.803-0.009-1.489-0.025-2.059
						c-0.017-0.569-0.033-1.054-0.05-1.455c-0.017-0.401-0.043-0.804-0.075-1.206c-0.067-0.936-0.218-1.589-0.452-1.957
						c-0.234-0.369-0.484-0.67-0.752-0.904c-0.301-0.234-0.694-0.377-1.179-0.427c-0.485-0.05-0.995-0.075-1.53-0.075l-0.2-0.197
						l-0.15-0.883l0.101-0.2c0.233,0,0.567,0.014,1.003,0.042c0.434,0.028,0.878,0.056,1.329,0.083
						c0.451,0.028,0.895,0.056,1.329,0.084c0.435,0.028,0.768,0.041,1.003,0.041h2.357c0.234,0,0.568,0,1.004,0
						c0.434,0,0.886-0.016,1.354-0.05c0.469-0.033,0.92-0.066,1.354-0.101c0.435-0.032,0.769-0.066,1.004-0.1L893.526,426.605z"/>
					<path style="fill:#3C6084;" d="M889.253,460.361h-3.435l-0.652-0.785l-17.016-25.565c-0.004,0.198-0.006,0.413-0.006,0.646
						v14.847c0,0.648,0.008,1.321,0.024,2.02l0.051,2.03c0.017,0.64,0.04,1.157,0.073,1.55c0.061,0.77,0.185,1.338,0.371,1.693
						c0.18,0.346,0.405,0.614,0.671,0.799c0.213,0.161,0.491,0.264,0.842,0.317c0.406,0.063,0.938,0.095,1.58,0.095h0.175
						l0.538,0.429l0.242,1.457l-0.535,0.268h-12.025l-0.535-0.268l0.242-1.457l0.538-0.429h0.175c0.576,0,1.071-0.024,1.47-0.071
						c0.339-0.041,0.634-0.152,0.901-0.341c0.122-0.087,0.329-0.281,0.595-0.69c0.142-0.218,0.335-0.708,0.449-1.813
						c0.033-0.24,0.057-0.502,0.073-0.804c0.016-0.31,0.025-0.694,0.025-1.152v-19.427c0-0.561-0.009-1.039-0.025-1.435
						c-0.017-0.394-0.041-0.789-0.073-1.185c-0.062-0.634-0.197-1.177-0.403-1.606c-0.2-0.412-0.422-0.716-0.66-0.901
						c-0.226-0.176-0.521-0.285-0.876-0.324c-0.434-0.048-0.93-0.072-1.475-0.072h-0.173l-0.539-0.423l-0.21-1.234l0.31-0.623h0.31
						c0.24,0,0.595,0.014,1.06,0.043l2.759,0.167c0.438,0.027,0.769,0.04,0.997,0.04h2.885c0.429,0,0.773-0.042,1.021-0.125
						l0.219-0.072l0.616,0.37l0.054,0.19c0.125,0.438,0.392,1.058,0.793,1.842c0.416,0.816,0.918,1.728,1.491,2.709
						c0.583,1.001,1.218,2.07,1.902,3.203c0.683,1.135,1.375,2.252,2.075,3.351c2.519,4.045,4.748,7.393,6.628,9.954
						c1.195,1.63,2.126,2.907,2.783,3.819v-15.628c0-0.797-0.009-1.479-0.025-2.044c-0.017-0.566-0.033-1.049-0.05-1.449
						c-0.017-0.394-0.042-0.79-0.073-1.186c-0.077-1.062-0.247-1.525-0.376-1.728c-0.208-0.327-0.43-0.596-0.659-0.797
						c-0.203-0.156-0.513-0.266-0.9-0.306c-0.47-0.048-0.968-0.072-1.479-0.072h-0.205l-0.461-0.454l-0.205-1.204l0.313-0.622h0.309
						c0.241,0,0.586,0.014,1.035,0.043l2.658,0.167c0.421,0.027,0.744,0.04,0.971,0.04h3.361c0.422,0,0.862-0.016,1.317-0.049
						c0.468-0.033,0.918-0.066,1.352-0.1c0.422-0.032,0.746-0.064,0.973-0.097l0.446-0.063l0.181,0.726l-0.134,1.18l-0.552,0.433
						h-0.173c-0.513,0-1.01,0.025-1.479,0.072c-0.377,0.039-0.663,0.142-0.851,0.306c-0.226,0.198-0.437,0.462-0.626,0.782
						c-0.122,0.206-0.282,0.674-0.357,1.738c-0.034,0.464-0.059,0.894-0.074,1.291c-0.018,0.401-0.034,0.866-0.051,1.4
						c-0.017,0.531-0.024,1.178-0.024,1.941v11.796c0,1.871,0.008,3.409,0.024,4.611c0.017,1.204,0.033,2.232,0.051,3.083
						c0.017,0.845,0.049,1.597,0.099,2.258c0.05,0.667,0.107,1.403,0.175,2.203l0.032,0.377L889.253,460.361z M886.286,459.361
						h2.747c-0.055-0.653-0.102-1.262-0.145-1.821c-0.05-0.678-0.084-1.449-0.101-2.313c-0.018-0.853-0.034-1.884-0.051-3.09
						c-0.017-1.206-0.024-2.748-0.024-4.625v-11.796c0-0.775,0.008-1.434,0.024-1.973c0.017-0.538,0.033-1.009,0.051-1.411
						c0.018-0.405,0.042-0.846,0.076-1.32c0.073-1.024,0.234-1.736,0.494-2.176c0.243-0.412,0.523-0.757,0.829-1.025
						c0.346-0.304,0.819-0.488,1.407-0.548c0.435-0.045,0.893-0.07,1.362-0.077l0.025-0.223c-0.143,0.014-0.3,0.026-0.473,0.04
						c-0.434,0.034-0.886,0.067-1.357,0.101c-0.479,0.035-0.943,0.051-1.389,0.051h-3.361c-0.242,0-0.587-0.013-1.035-0.042
						l-2.658-0.167c-0.191-0.013-0.36-0.022-0.511-0.028l0.046,0.27c0.456,0.007,0.901,0.032,1.325,0.076
						c0.577,0.059,1.061,0.237,1.436,0.529c0.323,0.282,0.607,0.623,0.866,1.031c0.282,0.441,0.455,1.158,0.529,2.189
						c0.032,0.404,0.058,0.813,0.076,1.221c0.017,0.403,0.032,0.89,0.05,1.461c0.017,0.574,0.025,1.266,0.025,2.074v15.766
						c0,0.283-0.01,0.531-0.027,0.743c-0.017,0.19-0.023,0.394-0.023,0.611v1.593l-0.91-1.307c-0.53-0.762-1.751-2.446-3.629-5.006
						c-1.894-2.582-4.138-5.95-6.668-10.013c-0.701-1.104-1.397-2.227-2.085-3.368c-0.688-1.138-1.324-2.211-1.909-3.216
						c-0.583-0.997-1.094-1.926-1.519-2.758c-0.363-0.71-0.619-1.287-0.779-1.753c-0.293,0.063-0.634,0.094-1.032,0.094h-2.885
						c-0.241,0-0.595-0.013-1.059-0.042l-2.759-0.167c-0.201-0.013-0.38-0.022-0.536-0.029l0.046,0.27
						c0.502,0.006,0.965,0.031,1.379,0.077c0.543,0.06,1.008,0.238,1.382,0.529c0.359,0.28,0.678,0.703,0.945,1.256
						c0.258,0.537,0.426,1.193,0.499,1.952c0.034,0.414,0.059,0.823,0.077,1.231c0.017,0.408,0.025,0.9,0.025,1.477v19.427
						c0,0.479-0.009,0.88-0.026,1.206c-0.019,0.336-0.044,0.625-0.079,0.872c-0.107,1.042-0.306,1.779-0.604,2.236
						c-0.285,0.438-0.564,0.752-0.853,0.961c-0.405,0.283-0.861,0.456-1.36,0.517c-0.39,0.047-0.854,0.073-1.384,0.078l-0.025,0.154
						h10.823l-0.025-0.154c-0.609-0.006-1.109-0.041-1.525-0.105c-0.516-0.079-0.945-0.246-1.277-0.496
						c-0.384-0.268-0.716-0.656-0.971-1.146c-0.251-0.482-0.408-1.16-0.48-2.074c-0.035-0.404-0.061-0.941-0.077-1.605l-0.051-2.033
						c-0.017-0.706-0.024-1.387-0.024-2.043v-14.847c0-0.494,0.008-0.912,0.025-1.254c0.016-0.326,0.024-0.651,0.024-0.979v-1.654
						l18.773,28.21L886.286,459.361z"/>
				</g>
				<g>
					<path style="fill:#3C6084;" d="M913.038,426.556c0.435,0,1.095,0,1.981,0c0.886,0,1.78,0,2.684,0c0.902,0,1.713,0,2.433,0
						c0.719,0,1.161,0,1.329,0l0.251,0.451l-0.201,5.459h-1.254l-0.2-0.202c-0.067-0.779-0.159-1.39-0.276-1.83
						c-0.117-0.44-0.451-0.762-1.003-0.965c-0.552-0.203-1.379-0.305-2.482-0.305c-1.104,0-2.659,0-4.665,0h-4.815l-0.101,1.932
						c-0.033,0.528-0.059,0.974-0.075,1.337c-0.017,0.363-0.033,0.81-0.05,1.338c-0.018,0.528-0.025,1.164-0.025,1.906
						c0,0.743,0,2.535,0,5.374c1.004,0,2.007,0,3.01,0c1.003,0,1.914,0,2.733,0c0.819,0,1.513-0.059,2.082-0.178
						c0.568-0.118,0.953-0.296,1.153-0.532c0.268-0.27,0.502-0.541,0.702-0.813c0.201-0.271,0.301-0.66,0.301-1.168l0.251-0.247
						l0.852-0.099l0.201,0.099c-0.067,0.767-0.125,1.434-0.176,2.001c-0.05,0.567-0.075,1.218-0.075,1.951
						c0,0.801,0.025,1.543,0.075,2.227c0.051,0.685,0.108,1.427,0.176,2.227l-0.201,0.101l-0.902-0.101l-0.201-0.15
						c0-0.543-0.1-1.044-0.301-1.503c-0.2-0.458-0.435-0.841-0.702-1.146c-0.2-0.203-0.585-0.357-1.153-0.458
						c-0.569-0.102-1.254-0.153-2.057-0.153c-0.803,0-1.705,0-2.709,0c-1.003,0-2.023,0-3.06,0v4.847c0,1.199,0,2.175,0,2.924
						c0,0.749,0.008,1.415,0.025,1.998c0.017,0.583,0.042,1.117,0.075,1.6c0.033,0.483,0.083,1.041,0.15,1.674
						c0,0.636,0.334,0.953,1.003,0.953h4.264c2.007,0,3.587-0.042,4.74-0.126c1.153-0.083,2.031-0.259,2.634-0.526
						c0.602-0.268,1.027-0.678,1.278-1.229s0.493-1.278,0.727-2.182l0.2-0.2h1.305l-0.903,6.323l-0.401,0.498
						c-0.167,0-0.552,0-1.153,0c-0.602,0-1.279,0-2.031,0c-0.752,0-1.505,0-2.257,0c-0.753,0-1.347,0-1.781,0H904.31
						c-0.234,0-0.619,0-1.153,0c-0.536,0-1.088,0-1.655,0c-0.569,0-1.121,0-1.655,0c-0.535,0-0.921,0-1.154,0l-0.1-0.05l0.15-0.903
						l0.251-0.2c0.534,0,1.035-0.025,1.504-0.075c0.469-0.051,0.854-0.192,1.154-0.427c0.267-0.233,0.526-0.534,0.777-0.902
						c0.251-0.368,0.409-1.021,0.477-1.957c0-0.233,0.008-0.509,0.024-0.827c0.017-0.317,0.033-0.71,0.051-1.179
						c0.017-0.468,0.025-1.036,0.025-1.705c0-0.669,0-1.505,0-2.509v-10.182c0-1.17,0-2.157,0-2.96c0-0.802,0-1.487,0-2.056
						c0-0.568-0.009-1.054-0.025-1.455c-0.017-0.401-0.042-0.803-0.075-1.204c-0.067-0.902-0.226-1.546-0.477-1.931
						c-0.251-0.384-0.511-0.693-0.777-0.928c-0.301-0.234-0.685-0.377-1.154-0.427c-0.469-0.05-0.97-0.075-1.504-0.075l-0.251-0.2
						l-0.15-0.903l0.1-0.05c0.233,0,0.619,0,1.154,0c0.534,0,1.111,0,1.73,0c0.618,0,1.22,0,1.806,0c0.584,0,1.061,0,1.43,0H913.038
						z"/>
					<path style="fill:#3C6084;" d="M921.904,460.16h-23.33l-0.535-0.268l0.242-1.457l0.538-0.429h0.175
						c0.511,0,0.999-0.024,1.451-0.072c0.373-0.04,0.676-0.149,0.899-0.324c0.214-0.188,0.447-0.459,0.672-0.789
						c0.137-0.201,0.315-0.66,0.391-1.712c-0.001-0.205,0.007-0.488,0.024-0.817c0.017-0.315,0.032-0.705,0.05-1.171
						c0.017-0.462,0.025-1.024,0.025-1.686v-17.706c0-0.56-0.009-1.039-0.025-1.435c-0.017-0.394-0.041-0.788-0.073-1.184
						c-0.076-1.018-0.258-1.485-0.398-1.698c-0.225-0.344-0.456-0.621-0.688-0.825c-0.202-0.157-0.505-0.266-0.877-0.306
						c-0.452-0.048-0.94-0.072-1.451-0.072h-0.175l-0.538-0.429l-0.242-1.457l0.535-0.268h23.185l0.462,0.83l-0.225,6.08h-1.944
						l-0.474-0.478l-0.016-0.181c-0.065-0.749-0.152-1.336-0.262-1.744c-0.047-0.176-0.169-0.432-0.692-0.625
						c-0.493-0.182-1.271-0.273-2.31-0.273h-9.006l-0.076,1.458c-0.033,0.53-0.059,0.973-0.075,1.333
						c-0.016,0.361-0.032,0.806-0.049,1.331c-0.018,0.524-0.025,1.155-0.025,1.891v4.874h5.243c0.783,0,1.449-0.057,1.979-0.167
						c0.618-0.129,0.817-0.299,0.874-0.366c0.278-0.283,0.498-0.538,0.682-0.786c0.135-0.183,0.203-0.475,0.203-0.871v-0.209
						l0.522-0.515l1.169-0.136l0.642,0.314l-0.206,2.344c-0.049,0.553-0.073,1.194-0.073,1.906c0,0.78,0.025,1.518,0.074,2.19
						c0.05,0.683,0.107,1.423,0.175,2.221l0.028,0.338l-0.636,0.318L916.56,447l-0.511-0.382v-0.25c0-0.473-0.087-0.91-0.259-1.302
						c-0.179-0.41-0.388-0.753-0.62-1.018c-0.037-0.036-0.237-0.183-0.865-0.295c-0.541-0.097-1.204-0.146-1.969-0.146h-5.268v7.271
						c0,0.743,0.008,1.404,0.025,1.983c0.017,0.576,0.041,1.104,0.074,1.58c0.032,0.478,0.082,1.029,0.148,1.655
						c0.003,0.372,0.073,0.506,0.506,0.506h4.264c1.985,0,3.568-0.042,4.704-0.125c1.09-0.078,1.919-0.241,2.467-0.484
						c0.49-0.218,0.825-0.538,1.026-0.979c0.237-0.522,0.473-1.229,0.698-2.101l0.034-0.131l0.443-0.443h2.088l-1.004,7.03
						L921.904,460.16z M899.175,459.16h22.251l0.165-0.205l0.803-5.616h-0.49c-0.228,0.849-0.466,1.551-0.711,2.089
						c-0.302,0.664-0.817,1.162-1.53,1.479c-0.663,0.294-1.579,0.48-2.801,0.568c-1.16,0.084-2.767,0.127-4.776,0.127h-4.264
						c-0.941,0-1.503-0.543-1.503-1.453c-0.065-0.587-0.115-1.15-0.15-1.64c-0.033-0.488-0.06-1.029-0.076-1.619
						c-0.018-0.587-0.025-1.258-0.025-2.013v-8.271h6.268c0.824,0,1.545,0.055,2.145,0.161c0.679,0.121,1.143,0.317,1.422,0.6
						c0.32,0.364,0.584,0.793,0.804,1.297c0.188,0.427,0.299,0.891,0.332,1.383l0.277,0.03c-0.051-0.619-0.096-1.202-0.137-1.749
						c-0.051-0.697-0.076-1.459-0.076-2.264c0-0.741,0.026-1.412,0.077-1.995l0.133-1.513l-0.269,0.031
						c-0.029,0.514-0.158,0.92-0.394,1.237c-0.211,0.286-0.463,0.578-0.748,0.866c-0.251,0.299-0.72,0.527-1.407,0.67
						c-0.604,0.127-1.319,0.189-2.184,0.189h-6.243v-5.874c0-0.749,0.008-1.39,0.025-1.923c0.017-0.53,0.033-0.979,0.051-1.344
						c0.017-0.366,0.042-0.814,0.075-1.346l0.125-2.4h9.955c1.174,0,2.042,0.109,2.655,0.336c0.711,0.261,1.152,0.7,1.313,1.305
						c0.111,0.421,0.2,0.966,0.268,1.661h0.498l0.178-4.838l-0.04-0.072h-21.996l0.025,0.154c0.472,0.006,0.925,0.032,1.351,0.077
						c0.561,0.06,1.034,0.237,1.409,0.529c0.323,0.283,0.614,0.63,0.889,1.049c0.3,0.46,0.482,1.169,0.557,2.167
						c0.033,0.403,0.058,0.812,0.076,1.22c0.017,0.408,0.025,0.9,0.025,1.476v17.706c0,0.676-0.009,1.25-0.025,1.723
						c-0.017,0.473-0.035,0.868-0.052,1.188c-0.016,0.308-0.023,0.575-0.023,0.801c-0.076,1.072-0.26,1.793-0.564,2.238
						c-0.272,0.4-0.563,0.735-0.861,0.997c-0.394,0.309-0.868,0.487-1.43,0.548c-0.426,0.045-0.88,0.071-1.352,0.077L899.175,459.16
						z"/>
				</g>
				<g>
					<path style="fill:#3C6084;" d="M933.001,434.029c0,0.936,0.167,1.714,0.502,2.332c0.334,0.619,0.844,1.162,1.529,1.63
						c0.686,0.469,1.556,0.895,2.608,1.279c1.054,0.385,2.299,0.795,3.737,1.228c1.236,0.401,2.457,0.854,3.661,1.354
						c1.204,0.502,2.282,1.147,3.235,1.932c0.953,0.786,1.713,1.739,2.282,2.858c0.568,1.121,0.853,2.483,0.853,4.089
						c0,1.705-0.334,3.151-1.003,4.338c-0.669,1.188-1.555,2.149-2.658,2.885c-1.104,0.735-2.383,1.27-3.838,1.604
						c-1.454,0.334-2.984,0.502-4.589,0.502c-2.074,0-3.963-0.234-5.668-0.702c-1.706-0.468-3.244-1.054-4.615-1.756l-0.2-0.652
						l0.853-5.366h1.254l0.251,0.301c0.167,2.04,0.986,3.536,2.458,4.489c1.471,0.953,3.478,1.43,6.019,1.43
						c2.608,0,4.572-0.594,5.894-1.781c1.321-1.186,1.981-2.733,1.981-4.64c0-1.17-0.251-2.148-0.752-2.934
						c-0.502-0.786-1.162-1.455-1.981-2.007c-0.819-0.552-1.756-1.011-2.809-1.379c-1.054-0.368-2.115-0.735-3.186-1.104
						c-1.338-0.435-2.583-0.911-3.736-1.43c-1.154-0.519-2.157-1.129-3.01-1.831c-0.852-0.702-1.522-1.538-2.007-2.508
						c-0.484-0.97-0.727-2.123-0.727-3.461c0-1.571,0.275-2.9,0.827-3.988c0.552-1.086,1.313-1.973,2.282-2.658
						c0.97-0.685,2.098-1.179,3.386-1.479c1.287-0.301,2.684-0.451,4.188-0.451c1.806,0,3.511,0.167,5.116,0.501
						c1.604,0.335,2.909,0.736,3.912,1.204l0.201,0.552l-0.702,4.464h-1.405l-0.25-0.25c-0.067-0.869-0.352-1.572-0.854-2.107
						c-0.501-0.534-1.096-0.953-1.78-1.254c-0.686-0.301-1.422-0.501-2.207-0.602c-0.786-0.101-1.479-0.15-2.082-0.15
						c-2.174,0-3.879,0.477-5.116,1.43C933.619,430.895,933.001,432.257,933.001,434.029z"/>
					<path style="fill:#3C6084;" d="M939.321,460.561c-2.107,0-4.059-0.242-5.8-0.72c-1.728-0.474-3.313-1.077-4.711-1.793
						l-0.188-0.097l-0.296-0.965l0.938-5.902h1.915l0.502,0.603l0.013,0.157c0.155,1.894,0.885,3.238,2.231,4.11
						c1.382,0.895,3.315,1.35,5.747,1.35c2.469,0,4.339-0.557,5.56-1.653c1.222-1.097,1.815-2.493,1.815-4.268
						c0-1.067-0.227-1.964-0.674-2.665c-0.462-0.725-1.081-1.351-1.839-1.86c-0.777-0.524-1.685-0.969-2.694-1.322
						c-1.053-0.367-2.113-0.734-3.183-1.103c-1.339-0.435-2.613-0.923-3.778-1.446c-1.188-0.534-2.239-1.174-3.122-1.901
						c-0.905-0.745-1.624-1.643-2.137-2.67c-0.517-1.035-0.779-2.275-0.779-3.685c0-1.644,0.297-3.062,0.881-4.215
						c0.588-1.155,1.408-2.11,2.44-2.84c1.021-0.721,2.219-1.245,3.561-1.559c1.317-0.308,2.766-0.464,4.302-0.464
						c1.831,0,3.587,0.172,5.218,0.512c1.637,0.341,2.989,0.759,4.021,1.24l0.188,0.088l0.316,0.867l-0.788,5.014h-2.04
						l-0.527-0.527l-0.014-0.184c-0.06-0.761-0.295-1.351-0.72-1.805c-0.453-0.482-0.997-0.865-1.617-1.138
						c-0.637-0.279-1.333-0.47-2.069-0.564c-0.759-0.098-1.439-0.147-2.018-0.147c-2.051,0-3.669,0.446-4.812,1.326
						c-1.117,0.86-1.66,2.068-1.66,3.691c0,0.849,0.148,1.553,0.441,2.094c0.294,0.546,0.756,1.035,1.372,1.455
						c0.648,0.443,1.488,0.854,2.497,1.223c1.054,0.385,2.302,0.795,3.711,1.22c1.247,0.404,2.492,0.865,3.709,1.371
						c1.241,0.518,2.372,1.193,3.361,2.008c1,0.825,1.811,1.84,2.409,3.018c0.602,1.188,0.907,2.639,0.907,4.315
						c0,1.785-0.359,3.327-1.067,4.583c-0.705,1.252-1.653,2.28-2.816,3.056c-1.149,0.767-2.497,1.33-4.003,1.676
						C942.535,460.389,940.954,460.561,939.321,460.561z M929.454,457.253c1.291,0.644,2.747,1.19,4.331,1.624
						c1.655,0.454,3.518,0.684,5.536,0.684c1.558,0,3.064-0.165,4.477-0.489c1.389-0.318,2.624-0.835,3.673-1.533
						c1.031-0.688,1.873-1.601,2.5-2.714c0.623-1.105,0.938-2.481,0.938-4.093c0-1.518-0.269-2.817-0.799-3.862
						c-0.536-1.054-1.261-1.962-2.154-2.699c-0.912-0.752-1.959-1.376-3.109-1.855c-1.191-0.496-2.411-0.947-3.623-1.341
						c-1.417-0.427-2.684-0.844-3.755-1.234c-1.087-0.396-2.002-0.846-2.719-1.336c-0.749-0.512-1.316-1.119-1.688-1.806
						c-0.372-0.688-0.562-1.553-0.562-2.569c0-1.928,0.689-3.435,2.051-4.484c1.32-1.018,3.144-1.533,5.421-1.533
						c0.623,0,1.345,0.052,2.146,0.154c0.831,0.107,1.62,0.322,2.345,0.64c0.744,0.327,1.398,0.788,1.943,1.37
						c0.537,0.572,0.862,1.311,0.967,2.199h0.75l0.616-3.914l-0.085-0.233c-0.94-0.413-2.155-0.777-3.617-1.083
						c-1.564-0.325-3.251-0.49-5.014-0.49c-1.46,0-2.831,0.147-4.074,0.439c-1.217,0.283-2.297,0.755-3.212,1.4
						c-0.898,0.635-1.612,1.468-2.125,2.477c-0.513,1.011-0.773,2.276-0.773,3.762c0,1.253,0.227,2.343,0.674,3.237
						c0.45,0.901,1.082,1.69,1.877,2.346c0.815,0.671,1.79,1.263,2.897,1.761c1.132,0.509,2.372,0.983,3.685,1.41
						c1.079,0.371,2.142,0.738,3.196,1.107c1.091,0.381,2.074,0.864,2.923,1.435c0.872,0.588,1.587,1.312,2.124,2.152
						c0.551,0.864,0.83,1.941,0.83,3.203c0,2.046-0.723,3.732-2.147,5.012c-1.409,1.267-3.505,1.909-6.228,1.909
						c-2.628,0-4.744-0.508-6.29-1.51c-1.563-1.013-2.461-2.596-2.67-4.709l-0.002-0.001h-0.593l-0.768,4.83L929.454,457.253z"/>
				</g>
				<g>
					<path style="fill:#3C6084;" d="M961.642,434.029c0,0.936,0.167,1.714,0.502,2.332c0.334,0.619,0.844,1.162,1.529,1.63
						c0.685,0.469,1.556,0.895,2.608,1.279c1.054,0.385,2.299,0.795,3.737,1.228c1.236,0.401,2.457,0.854,3.661,1.354
						c1.204,0.502,2.282,1.147,3.235,1.932c0.953,0.786,1.713,1.739,2.282,2.858c0.568,1.121,0.852,2.483,0.852,4.089
						c0,1.705-0.334,3.151-1.003,4.338c-0.669,1.188-1.555,2.149-2.658,2.885c-1.103,0.735-2.383,1.27-3.838,1.604
						c-1.454,0.334-2.984,0.502-4.589,0.502c-2.074,0-3.963-0.234-5.668-0.702c-1.706-0.468-3.244-1.054-4.615-1.756l-0.2-0.652
						l0.853-5.366h1.254l0.251,0.301c0.167,2.04,0.986,3.536,2.458,4.489c1.471,0.953,3.478,1.43,6.019,1.43
						c2.608,0,4.572-0.594,5.894-1.781c1.321-1.186,1.981-2.733,1.981-4.64c0-1.17-0.251-2.148-0.752-2.934
						c-0.502-0.786-1.162-1.455-1.981-2.007c-0.819-0.552-1.756-1.011-2.809-1.379c-1.054-0.368-2.115-0.735-3.185-1.104
						c-1.338-0.435-2.583-0.911-3.736-1.43c-1.154-0.519-2.157-1.129-3.01-1.831c-0.853-0.702-1.523-1.538-2.007-2.508
						c-0.484-0.97-0.726-2.123-0.726-3.461c0-1.571,0.275-2.9,0.827-3.988c0.552-1.086,1.313-1.973,2.282-2.658
						c0.97-0.685,2.098-1.179,3.386-1.479c1.287-0.301,2.684-0.451,4.189-0.451c1.806,0,3.511,0.167,5.116,0.501
						c1.605,0.335,2.909,0.736,3.912,1.204l0.201,0.552l-0.702,4.464h-1.405l-0.25-0.25c-0.067-0.869-0.352-1.572-0.853-2.107
						c-0.501-0.534-1.096-0.953-1.78-1.254c-0.685-0.301-1.422-0.501-2.207-0.602c-0.786-0.101-1.479-0.15-2.082-0.15
						c-2.174,0-3.879,0.477-5.116,1.43C962.26,430.895,961.642,432.257,961.642,434.029z"/>
					<path style="fill:#3C6084;" d="M967.962,460.561c-2.107,0-4.059-0.242-5.8-0.72c-1.729-0.474-3.314-1.077-4.711-1.793
						l-0.188-0.097l-0.296-0.965l0.938-5.902h1.915l0.502,0.603l0.013,0.157c0.155,1.894,0.885,3.238,2.231,4.11
						c1.382,0.895,3.315,1.35,5.747,1.35c2.469,0,4.339-0.557,5.56-1.653c1.222-1.097,1.815-2.493,1.815-4.268
						c0-1.067-0.227-1.964-0.674-2.665c-0.462-0.725-1.081-1.351-1.839-1.86c-0.777-0.524-1.685-0.969-2.694-1.322
						c-1.053-0.367-2.113-0.734-3.184-1.103c-1.339-0.435-2.613-0.923-3.778-1.446c-1.189-0.534-2.239-1.174-3.122-1.901
						c-0.905-0.745-1.624-1.643-2.137-2.67c-0.518-1.035-0.779-2.275-0.779-3.685c0-1.644,0.297-3.062,0.881-4.215
						c0.588-1.155,1.408-2.11,2.439-2.84c1.022-0.721,2.219-1.245,3.562-1.559c1.317-0.308,2.766-0.464,4.302-0.464
						c1.831,0,3.587,0.172,5.218,0.512c1.637,0.341,2.989,0.759,4.022,1.24l0.188,0.088l0.316,0.867l-0.788,5.014h-2.04
						l-0.527-0.527l-0.014-0.184c-0.06-0.761-0.295-1.351-0.72-1.805c-0.453-0.482-0.997-0.865-1.617-1.138
						c-0.637-0.279-1.333-0.47-2.069-0.564c-0.759-0.098-1.438-0.147-2.018-0.147c-2.051,0-3.669,0.446-4.811,1.326
						c-1.117,0.86-1.66,2.068-1.66,3.691c0,0.849,0.148,1.553,0.441,2.094c0.294,0.546,0.756,1.035,1.372,1.455
						c0.648,0.443,1.488,0.854,2.497,1.223c1.054,0.385,2.302,0.795,3.711,1.22c1.247,0.404,2.492,0.865,3.709,1.371
						c1.241,0.518,2.372,1.193,3.361,2.008c1,0.825,1.81,1.84,2.409,3.018c0.603,1.188,0.907,2.639,0.907,4.315
						c0,1.785-0.359,3.327-1.067,4.583c-0.705,1.252-1.653,2.28-2.816,3.056c-1.149,0.767-2.497,1.33-4.003,1.676
						C971.176,460.389,969.595,460.561,967.962,460.561z M958.095,457.253c1.291,0.644,2.747,1.19,4.331,1.624
						c1.655,0.454,3.518,0.684,5.536,0.684c1.558,0,3.063-0.165,4.477-0.489c1.389-0.318,2.624-0.835,3.673-1.533
						c1.031-0.688,1.873-1.601,2.5-2.714c0.623-1.105,0.938-2.481,0.938-4.093c0-1.518-0.268-2.817-0.799-3.862
						c-0.536-1.054-1.261-1.962-2.154-2.699c-0.912-0.752-1.959-1.376-3.109-1.855c-1.191-0.496-2.411-0.947-3.623-1.341
						c-1.417-0.427-2.684-0.844-3.755-1.234c-1.087-0.396-2.002-0.846-2.719-1.336c-0.749-0.512-1.316-1.119-1.688-1.806
						c-0.372-0.688-0.562-1.553-0.562-2.569c0-1.928,0.69-3.435,2.051-4.484c1.32-1.018,3.145-1.533,5.421-1.533
						c0.623,0,1.345,0.052,2.146,0.154c0.831,0.107,1.62,0.322,2.345,0.64c0.744,0.327,1.398,0.788,1.943,1.37
						c0.537,0.572,0.862,1.311,0.967,2.199h0.75l0.616-3.914l-0.085-0.233c-0.939-0.413-2.155-0.777-3.617-1.083
						c-1.563-0.325-3.251-0.49-5.014-0.49c-1.46,0-2.831,0.147-4.074,0.439c-1.217,0.283-2.297,0.755-3.212,1.4
						c-0.897,0.635-1.612,1.468-2.125,2.477c-0.513,1.011-0.772,2.276-0.772,3.762c0,1.253,0.226,2.343,0.674,3.237
						c0.45,0.901,1.082,1.69,1.877,2.346c0.815,0.671,1.79,1.263,2.897,1.761c1.132,0.509,2.372,0.983,3.686,1.41
						c1.079,0.371,2.142,0.738,3.196,1.107c1.091,0.381,2.074,0.864,2.923,1.435c0.872,0.588,1.587,1.312,2.124,2.152
						c0.551,0.864,0.83,1.941,0.83,3.203c0,2.046-0.723,3.732-2.148,5.012c-1.409,1.267-3.505,1.909-6.227,1.909
						c-2.628,0-4.744-0.508-6.29-1.51c-1.564-1.013-2.461-2.596-2.67-4.709l-0.002-0.001h-0.593l-0.768,4.83L958.095,457.253z"/>
				</g>
				<g>
					<path style="fill:#647380;" d="M805.878,483.011c0,0.929,0.243,1.687,0.73,2.275c0.486,0.589,1.114,1.024,1.885,1.308
						c0.769,0.283,1.618,0.526,2.547,0.729c0.928,0.204,1.857,0.431,2.785,0.68c0.928,0.249,1.776,0.572,2.547,0.968
						c0.77,0.396,1.397,1.002,1.885,1.816c0.486,0.815,0.731,1.823,0.731,3.023c0,1.788-0.669,3.351-2.004,4.687
						c-1.336,1.336-3.164,2.003-5.485,2.003c-2.32,0-4.205-0.521-5.654-1.561c-1.449-1.041-2.173-2.445-2.173-4.211h2.513
						c0.09,1.086,0.555,1.986,1.393,2.699c0.837,0.713,2.089,1.07,3.753,1.07s2.988-0.43,3.973-1.291
						c0.985-0.86,1.477-1.93,1.477-3.209s-0.453-2.241-1.358-2.887c-0.905-0.646-1.998-1.092-3.277-1.342
						c-1.279-0.249-2.559-0.537-3.838-0.866c-1.279-0.327-2.371-0.968-3.276-1.918c-0.906-0.951-1.358-2.332-1.358-4.144
						c0-1.811,0.673-3.306,2.021-4.483c1.347-1.177,3.124-1.766,5.332-1.766c2.207,0,3.944,0.51,5.213,1.528
						c1.268,1.019,2.037,2.377,2.309,4.075h-2.683c-0.091-0.951-0.566-1.783-1.426-2.496c-0.861-0.713-2.038-1.069-3.532-1.069
						s-2.706,0.373-3.634,1.12C806.342,480.497,805.878,481.584,805.878,483.011z"/>
				</g>
				<g>
					<path style="fill:#647380;" d="M832.096,500.263h-2.377v-9.237l-7.505-14.195h2.547l6.113,12.021l6.112-12.021h2.581
						l-7.472,14.195V500.263z"/>
				</g>
				<g>
					<path style="fill:#647380;" d="M845,483.011c0,0.929,0.243,1.687,0.731,2.275c0.486,0.589,1.114,1.024,1.885,1.308
						c0.77,0.283,1.618,0.526,2.547,0.729c0.928,0.204,1.857,0.431,2.785,0.68c0.928,0.249,1.776,0.572,2.547,0.968
						c0.77,0.396,1.398,1.002,1.885,1.816c0.486,0.815,0.73,1.823,0.73,3.023c0,1.788-0.669,3.351-2.004,4.687
						c-1.336,1.336-3.164,2.003-5.485,2.003c-2.32,0-4.205-0.521-5.654-1.561c-1.449-1.041-2.173-2.445-2.173-4.211h2.513
						c0.09,1.086,0.555,1.986,1.392,2.699c0.837,0.713,2.089,1.07,3.753,1.07c1.664,0,2.988-0.43,3.973-1.291
						c0.985-0.86,1.478-1.93,1.478-3.209s-0.453-2.241-1.358-2.887c-0.905-0.646-1.998-1.092-3.277-1.342
						c-1.279-0.249-2.559-0.537-3.838-0.866c-1.279-0.327-2.371-0.968-3.276-1.918c-0.906-0.951-1.358-2.332-1.358-4.144
						c0-1.811,0.673-3.306,2.02-4.483c1.347-1.177,3.124-1.766,5.332-1.766c2.207,0,3.944,0.51,5.213,1.528
						c1.268,1.019,2.037,2.377,2.309,4.075h-2.683c-0.091-0.951-0.566-1.783-1.426-2.496c-0.861-0.713-2.038-1.069-3.532-1.069
						c-1.494,0-2.706,0.373-3.634,1.12C845.464,480.497,845,481.584,845,483.011z"/>
				</g>
				<g>
					<path style="fill:#647380;" d="M862.49,478.766v-1.935h14.637v1.935h-6.146v21.497h-2.344v-21.497H862.49z"/>
				</g>
				<g>
					<path style="fill:#647380;" d="M893.938,476.83v1.935h-9.543v8.762h8.523v1.901h-8.523v8.933h9.543v1.901h-11.921V476.83
						H893.938z"/>
				</g>
				<g>
					<path style="fill:#647380;" d="M922.431,476.83v23.433h-2.377v-18.033l-8.524,18.033h-1.393l-8.523-17.966v17.966h-2.378
						V476.83h2.208l9.407,20.003l9.373-20.003H922.431z"/>
				</g>
			</g>
			<g>
				<g>
					<path style="fill:#B1CFDF;" d="M807.143,697.411l-18.592,18.592c18.592,17.097,43.083,27.87,70.073,28.927v-26.276
						C838.881,717.638,820.952,709.778,807.143,697.411z"/>
				</g>
				<g>
					<path style="fill:#6699C4;" d="M858.624,551.346V525.07c-27.935,1.093-53.194,12.597-72.004,30.746l18.582,18.582
						C819.252,560.995,837.938,552.411,858.624,551.346z"/>
				</g>
				<g>
					<path style="fill:#B1CFDF;" d="M779.441,640.626h-26.323c1.367,27.125,12.558,51.659,30.085,70.118l18.586-18.586
						C789.002,678.471,780.76,660.5,779.441,640.626z"/>
				</g>
				<g>
					<path style="fill:#6699C4;" d="M920.158,573.789l18.586-18.586c-19.025-18.064-44.502-29.395-72.618-30.179v26.287
						C886.991,552.077,905.899,560.468,920.158,573.789z"/>
				</g>
				<g>
					<path style="fill:#6699C4;" d="M946.721,633.125H973c-0.468-27.976-11.374-53.409-28.997-72.573l-18.592,18.592
						C938.297,593.531,946.264,612.399,946.721,633.125z"/>
				</g>
				<g>
					<path style="fill:#B1CFDF;" d="M800.008,579.813l-18.61-18.61c-17.272,19.087-27.936,44.263-28.398,71.922h26.279
						C779.729,612.716,787.468,594.115,800.008,579.813z"/>
				</g>
				<g>
					<path style="fill:#6699C4;" d="M866.126,718.689v26.287c27.168-0.758,51.872-11.363,70.671-28.375l-18.61-18.61
						C904.177,710.276,886.044,717.957,866.126,718.689z"/>
				</g>
				<g>
					<path style="fill:#6699C4;" d="M946.559,640.626c-1.34,20.186-9.826,38.407-22.958,52.172l18.582,18.582
						c17.878-18.53,29.317-43.315,30.699-70.754H946.559z"/>
				</g>
			</g>
			<g>
				<g>
					<g>
						<path style="fill:#A0A4A9;" d="M872.739,586.261l-1.029-4.772c-1.65-0.212-3.319-0.348-5.003-0.403s-3.358-0.029-5.019,0.074
							l-1.34,4.694c-1.524,5.339-8.323,6.924-12.051,2.809l-3.292-3.634c-3.077,1.282-6.033,2.865-8.831,4.737l1.188,4.741
							c1.35,5.386-3.746,10.158-9.032,8.458l-4.653-1.496c-2.051,2.669-3.824,5.515-5.306,8.501l3.41,3.523
							c3.862,3.99,1.835,10.67-3.593,11.841l-4.772,1.029c-0.212,1.65-0.348,3.319-0.403,5.003s-0.029,3.358,0.074,5.019l4.694,1.34
							c5.339,1.524,6.924,8.323,2.809,12.051l-3.634,3.292c1.282,3.077,2.865,6.033,4.737,8.831l4.741-1.188
							c5.386-1.35,10.158,3.746,8.458,9.032l-1.496,4.653c2.669,2.051,5.515,3.824,8.501,5.306l3.523-3.41
							c3.99-3.862,10.67-1.835,11.841,3.593l1.029,4.772c1.65,0.212,3.319,0.348,5.003,0.403c1.684,0.055,3.358,0.029,5.019-0.074
							l1.34-4.694c1.524-5.339,8.323-6.924,12.051-2.809l3.292,3.634c3.077-1.282,6.033-2.865,8.831-4.737l-1.188-4.741
							c-1.35-5.386,3.746-10.158,9.032-8.458l4.653,1.496c2.051-2.669,3.824-5.515,5.306-8.501l-3.411-3.523
							c-3.862-3.99-1.835-10.67,3.593-11.841l4.772-1.029c0.212-1.65,0.348-3.319,0.403-5.003c0.055-1.684,0.029-3.358-0.074-5.019
							l-4.694-1.34c-5.339-1.524-6.924-8.323-2.809-12.051l3.634-3.292c-1.282-3.077-2.865-6.033-4.737-8.831l-4.741,1.188
							c-5.386,1.35-10.158-3.746-8.458-9.032l1.496-4.653c-2.669-2.051-5.515-3.824-8.501-5.306l-3.523,3.41
							C880.59,593.716,873.91,591.689,872.739,586.261z M886.284,633.771c-0.386,11.755-10.228,20.971-21.983,20.585
							c-11.755-0.386-20.971-10.228-20.585-21.983c0.386-11.755,10.228-20.971,21.983-20.585
							C877.453,612.174,886.67,622.016,886.284,633.771z"/>
					</g>
				</g>
			</g>
		</g>
		<g>
			<g>
				<polygon style="fill:#A0A4A9;" points="543.982,416.5 528.789,434.03 506.055,578.503 525.283,601.151 657.343,578.946 
					649.163,550.898 549.825,550.898 567.355,494.801 				"/>
			</g>
			<g>
				<path style="fill:#B99A6F;" d="M650.864,554.78l18.751-13.816L700,552.651l-2.337,14.024h-29.746c0,0-3.848,3.529-12.762,5.271
					L650.864,554.78z"/>
			</g>
			<g>
				<polygon style="fill:#B99A6F;" points="697,367.038 714,353 746,357 751,396 727,396 713,367.333 				"/>
			</g>
		</g>
		<g>
			<g>
				<g>
					<polygon style="fill:#3A3029;" points="1342.948,1056.642 1373.248,1079.016 1373.57,1086.125 1362.655,1089.786 
						1321.904,1081.341 1317.743,1059.366 					"/>
				</g>
				<g>
					<path style="fill:#3A3029;" d="M1163.576,1062.021l-20.059,9.628l-4.814,12.035c0,0,13.64,4.012,17.652,3.209
						s39.315-3.209,39.315-3.209s2.403-22.466-0.002-21.663C1193.263,1062.823,1163.576,1062.021,1163.576,1062.021z"/>
				</g>
				<g>
					<path style="fill:#647380;" d="M1175.5,661.5l-17,187l5.289,214.767c0,0,31.211,4.233,33.211-1.767s28.5-197,28.5-197L1273,677
						l-85.5-49.5L1175.5,661.5z"/>
				</g>
				<g>
					<polygon style="fill:#647380;" points="1244.55,696.122 1289.775,892.259 1315.233,1063.3 1353,1055.045 1349.084,661.357 
											"/>
				</g>
				<g>
					<path style="fill:#647380;" d="M1386.242,675.322c2.506,17.446,4.685,40.91-2.592,42.591c-1.362,0.315-2.761-0.151-4.04-0.608
						c-13.5-4.827-23.601-12.633-36.898-17.269c-13.933-4.858-29.347-6.513-44.306-7.185c-22.324-1.107-44.859-0.775-66.964,1.442
						c-18.998,1.906-37.789,12.72-55.211,19.442c-6.706,2.588-11.775,8.234-17.081,12.809c-7.837,6.756-11.301,9.471-11.446-2.568
						c-0.238-19.644-0.404-39.292-0.13-58.937c0.546-39.183,2.823-78.462,9.719-117.089c2.634-14.756,5.935-29.385,9.235-44.007
						c4.018-17.806,8.036-35.612,12.054-53.418c4.994-22.13,15.714-38.507,36.545-48.334c18.002-8.492,41.045-12.795,60.227-5.757
						c21.322,7.824,34.677,40.955,46.499,58.148c10.36,15.067,25.984,57.54,31.093,74.445c6.149,20.347,11.991,40.628,17.066,60.939
						c5.62,22.495,10.311,45.023,13.422,67.589C1383.777,660.051,1385.046,666.992,1386.242,675.322z"/>
				</g>
				<g>
					<path style="fill:#FFFFFF;" d="M1253.207,401.907l-37.316,4.438c0,0-24.777,144.46-23.612,168.764
						c1.144,23.859,1.514,121.068,1.514,121.068s35.564,6.88,83.865,7.479c36.801,6.481,51.898-11.14,56.871-11.871
						c0,0-36.186-98.258-40.191-127.187c-4.097-29.589-18.608-127.208-18.608-127.208L1253.207,401.907z"/>
				</g>
				<g>
					<path style="fill:#9E6652;" d="M1248.045,404.787l-18.39,2.009c-4.293,0.469-6.189,5.653-3.212,8.782l8.631,9.069l-4.42,154.79
						l27.379,21.599l13.844-30.714L1252.07,422.79l1.706-12.088C1254.252,407.332,1251.427,404.417,1248.045,404.787z"/>
				</g>
				<g>
					<g>
						<path style="fill:#E7CAAD;" d="M1230.634,405.109c0.48,0.333,1.019,0.578,1.623,0.706c1.203,0.255,2.447-0.022,3.645-0.298
							c4.878-1.125,9.755-2.249,14.633-3.374c-3.283-14.954,5.188-19.343,12.745-30.017c7.658-10.822,3.516-23.83,1.706-35.85
							c-0.508-3.347-1.05-6.794-2.805-9.689c-3.08-5.08-9.212-7.402-15.043-8.538c-14.881-2.9-31.222,0-43.002,9.543
							c-3.135,2.54-5.986,5.612-7.423,9.382c-2.215,5.813-0.782,12.306,0.674,18.354c2.238,9.297,6.04,18.252,12.24,25.617
							c5.776,6.861,15.634,9.372,17.693,18.138C1227.849,401.349,1228.826,403.855,1230.634,405.109z"/>
					</g>
					<g>
						<g>
							<path style="fill:#3A3029;" d="M1196.602,344.323c1.256,3.711,3.449,7.365,2.939,11.247
								c-6.265-1.39-10.885-7.136-13.711-13.182c-1.281-2.74-2.315-5.677-2.4-8.716c-0.085-3.038,0.892-6.207,3.084-8.169
								c3.058-2.738,9.113-2.455,10.532,1.745C1198.478,331.484,1194.713,338.741,1196.602,344.323z"/>
						</g>
						<g>
							<path style="fill:#3A3029;" d="M1160.887,314.426c-0.355-4.572,0.936-8.833,4.707-12.028
								c3.251-2.754,7.083-5.162,8.803-9.164c1.335-3.106,1.183-6.753,2.503-9.866c2.389-5.637,8.664-7.905,14.074-10.318
								c13.535-6.038,20.519-12.064,36.006-7.92c11.011,2.946,24.719,2.004,35.177,6.914c4.367,2.05,8.289,5.682,11.636,9.839
								c11.597,14.403,16.353,35.917,11.667,52.773c-1.049,3.773-2.52,7.298-4.134,10.696c-3.227,6.794-6.572,15.084-13.175,18.959
								c-0.764-2.951-3.179-4.363-4.2-7.233c-0.735-2.066-0.809-4.308-0.938-6.504c-0.501-8.539,0.636-22.25-8.305-25.536
								c-11.306-4.153-30.897,2.849-40.733,8.485c-8.703,4.987-23.56,11.862-33.77,8.654
								C1170.726,339.199,1161.644,324.193,1160.887,314.426z"/>
						</g>
					</g>
				</g>
			</g>
			<g>
				<polygon style="fill:#647380;" points="1224,399 1192.789,402.433 1117.474,492.031 1070.806,414.007 1046.203,426.476 
					1089.865,537.039 1118.205,552.558 1172.677,493.677 1213.426,405.855 				"/>
			</g>
			<g>
				<polygon style="fill:#647380;" points="1273,397 1304,406 1398,516 1501,543 1496,569 1389,559 1328,525 				"/>
			</g>
			<g>
				<g>
					<g>
						<path style="fill:#6699C4;" d="M1145.04,266.497l11.289-5.796c-1.145-8.55-3.124-16.999-5.927-25.247l-12.647-0.205
							c-14.368-0.233-22.884-16.166-15.094-28.241l6.856-10.629c-5.3-6.914-11.225-13.253-17.698-18.956l-11.091,6.166
							c-12.56,6.982-27.901-2.558-27.193-16.911l0.623-12.618c-3.984-1.634-8.064-3.092-12.237-4.358
							c-4.173-1.266-8.376-2.321-12.596-3.176l-6.493,10.837c-7.386,12.327-25.442,11.735-32.005-1.049l-5.796-11.289
							c-8.55,1.145-16.999,3.123-25.247,5.927l-0.205,12.647c-0.233,14.368-16.166,22.884-28.241,15.094l-10.629-6.856
							c-6.914,5.3-13.253,11.225-18.956,17.698l6.166,11.091c6.982,12.56-2.558,27.901-16.911,27.193l-12.618-0.623
							c-1.634,3.983-3.092,8.064-4.358,12.237c-1.266,4.173-2.321,8.376-3.176,12.596l10.837,6.493
							c12.327,7.386,11.735,25.442-1.049,32.005l-11.289,5.796c1.145,8.55,3.123,16.999,5.927,25.247l12.647,0.205
							c14.368,0.233,22.884,16.166,15.094,28.241l-6.856,10.629c5.3,6.914,11.226,13.253,17.698,18.956l11.091-6.166
							c12.56-6.982,27.901,2.558,27.193,16.911l-0.623,12.618c3.983,1.634,8.064,3.092,12.237,4.358s8.376,2.321,12.596,3.176
							l6.493-10.837c7.386-12.327,25.442-11.735,32.005,1.048l5.796,11.289c8.55-1.145,16.999-3.123,25.247-5.927l0.205-12.647
							c0.233-14.368,16.166-22.884,28.241-15.094l10.629,6.856c6.914-5.3,13.253-11.225,18.955-17.698l-6.166-11.091
							c-6.982-12.56,2.558-27.901,16.91-27.193l12.618,0.623c1.634-3.983,3.092-8.064,4.358-12.237
							c1.266-4.173,2.321-8.376,3.176-12.596l-10.837-6.493C1131.665,291.117,1132.257,273.06,1145.04,266.497z M1047.409,222.958
							c1.436-4.734,6.938-6.874,11.188-4.342c16.912,10.077,28.561,26.791,32.517,45.595l-53.861,4.015
							c-0.45-0.629-0.942-1.238-1.485-1.818c-0.382-0.408-0.781-0.791-1.191-1.155L1047.409,222.958z M980.639,222.989
							c12.906-9.793,29.075-15.001,45.741-14.142c4.946,0.255,8.343,5.087,6.905,9.827l-12.832,42.297
							c-1.676,0.227-3.326,0.694-4.897,1.403l-34.967-27.335C976.664,231.971,976.671,226,980.639,222.989z M1033.492,278.513
							c0,5.881-4.768,10.649-10.649,10.649c-5.881,0-10.649-4.768-10.649-10.649c0-5.881,4.768-10.649,10.649-10.649
							C1028.724,267.865,1033.492,272.632,1033.492,278.513z M968.416,304.804c-4.178,2.928-9.96,0.989-11.606-3.84
							c-4.549-13.34-5.11-28.181-0.706-42.698c0.961-3.168,2.128-6.217,3.48-9.138c2.049-4.425,7.731-5.732,11.574-2.729
							l34.696,27.123c-0.528,1.804-0.764,3.676-0.706,5.544L968.416,304.804z M1034.033,347.367
							c-10.184,1.663-20.896,1.084-31.437-2.114c-10.637-3.227-19.938-8.766-27.519-15.901c-3.518-3.31-3.102-9.02,0.854-11.791
							l35.916-25.166c3.338,2.651,7.428,3.93,11.497,3.816l16.504,40.776C1041.677,341.51,1038.848,346.581,1034.033,347.367z
							 M1091.918,288.197c-0.497,3.523-1.27,7.052-2.335,10.563c-4.454,14.682-13.314,26.815-24.692,35.397
							c-3.974,2.998-9.723,1.343-11.591-3.271l-16.691-41.238c1.659-2.046,2.796-4.382,3.407-6.827l43.782-3.264
							C1088.637,279.197,1092.595,283.393,1091.918,288.197z"/>
					</g>
				</g>
				<g style="opacity:0.16;">
					<g>
						<path style="fill:#2E4661;" d="M1022.843,367.573c-49.108,0-89.06-39.952-89.06-89.06c0-49.108,39.952-89.06,89.06-89.06
							c49.108,0,89.06,39.952,89.06,89.06C1111.902,327.621,1071.95,367.573,1022.843,367.573z M1022.843,207.031
							c-39.416,0-71.482,32.067-71.482,71.482c0,39.416,32.067,71.482,71.482,71.482s71.482-32.067,71.482-71.482
							C1094.325,239.098,1062.258,207.031,1022.843,207.031z"/>
					</g>
				</g>
			</g>
			<g>
				<polygon style="fill:#E7CAAD;" points="1064.353,417.264 1072.146,404.669 1074.069,388.785 1058.848,382.666 1058.154,388.398 
					1065.166,395.765 1058.61,407.103 1046.212,410.88 1049.647,424.105 				"/>
			</g>
			<g>
				<g>
					<polygon style="fill:#2E4661;" points="1593.59,498.398 1593.621,498.422 1593.666,498.389 					"/>
				</g>
				<g>
					<path style="fill:#96411B;" d="M1584.322,518.142l12.666-16.334l-4.366-3.386l-13.983,10.618l-16.238-6.823l-2.21-17.474
						l17.835-13.399l-1.492-2.833l-29.495,14.685l0.6,28.632c0,0-63.651,82.086-63.653,82.088c-1.611,2.077-3.823,3.678-6.259,4.649
						c-2.372,0.945-5.097,0.889-7.615,1.408c-5.291,1.091-10.08,4.077-13.39,8.346c-7.712,9.946-5.902,24.261,4.044,31.974
						s24.261,5.902,31.974-4.044c2.238-2.887,3.767-6.298,4.415-9.894c0.373-2.071,0.371-4.29,0.145-6.425
						c-0.23-2.176-0.882-4.371-0.55-6.568c0.391-2.595,1.55-5.039,3.151-7.105c0,0,63.653-82.088,63.653-82.088L1584.322,518.142z
						 M1488.647,627.985l-11.349,9.837l-14.194-4.91l-2.845-14.747l11.349-9.837l14.194,4.91L1488.647,627.985z"/>
				</g>
			</g>
			<g>
				<polygon style="fill:#E7CAAD;" points="1501,543 1520,536 1533,543 1536,561 1529,561 1519.302,548.5 1507,571 
					1496.296,567.463 				"/>
			</g>
			<g>
				<polygon style="fill:#E7CAAD;" points="1539,551 1525.464,555.667 1515,570 1519.819,581.859 1527,579 1543,559 				"/>
			</g>
		</g>
		<g>
			<g>
				<g>
					<path style="fill:#273140;" d="M464.233,1056.322l23.597,15.127l8.189,12.023c0,0-8.392,4.205-13.108,5.377
						c-4.716,1.172-42.108-2.822-42.108-2.822l-1.013-21.896L464.233,1056.322z"/>
				</g>
				<g>
					<path style="fill:#273140;" d="M346.318,1072.837l11.662,13.076c0,0,9.487,17.724,4.73,17.453
						c-4.757-0.272-30.61,1.114-32.35-1.849c-1.74-2.963-15.468-13.293-17.262-15.305c-1.794-2.012,0.039-18.646,0.039-18.646
						L346.318,1072.837z"/>
				</g>
				<g>
					<path style="fill:#2E4661;" d="M413,725l-29.303,178.151l-37.38,169.686l-33.301-1.903l6.417-179.092
						c0,0-24.003-164.603-24.084-213.29L413,725z"/>
				</g>
				<g>
					<polygon style="fill:#2E4661;" points="486.515,733.782 473.109,1062.589 438.838,1064.175 420.612,897.109 394.074,749.679 
						464.902,658.459 					"/>
				</g>
				<g>
					<g>
						<polygon style="fill:none;" points="312.658,450.513 312.658,450.513 312.658,450.513 						"/>
					</g>
					<g>
						<path style="fill:#677B91;" d="M468.548,560.661c-17.97-87.445,4.847-129.606-34.483-153.909
							c0,0-64.073-17.604-104.887,11.692c-0.566,0.406-1.127,0.82-1.686,1.237l-14.834,30.831c0,0-11.256,138.321-11.256,138.321
							s-31.488,181.594-14.775,183.06C305.565,773.554,392.492,733.043,409,734s67,10,114.665-6.224
							C564.529,713.867,486.518,648.107,468.548,560.661z"/>
					</g>
				</g>
				<g>
					<polygon style="fill:#FFFFFF;" points="388.866,404.059 376.403,404.526 375.134,417.069 420.924,545.119 431.183,489.63 
						419.977,409.042 					"/>
				</g>
				<g>
					<g>
						<path style="fill:#2E4661;" d="M429.306,499.787c-0.095-5.061-0.333-9.593-0.75-13.273
							c-2.879-25.415-21.023-58.582-21.023-58.582s-1.212-7.249-1.488-13.559l-15.081-2.445l0.968,15.744l6.51,6.805
							c0,0,15.816,60.501,16.116,84.764c0.032,2.545-0.007,5.165-0.095,7.812l6.461,18.067L429.306,499.787z"/>
					</g>
				</g>
				<g>
					<polygon style="fill:#FFFFFF;" points="427.466,589.521 408.857,733.75 446.066,739 471.794,737 440.212,611.234 					"/>
				</g>
				<g>
					<g>
						<path style="fill:#E7CAAD;" d="M409.603,409.609c-8.542,0.352-17.084,0.703-25.625,1.055
							c-1.033-6.739-1.526-13.561-1.474-20.379c-7.369-1.479-16.004-4.039-18.262-11.208c-0.711-2.258-0.644-4.677-0.571-7.044
							c0.305-9.782-2.441-19.699,0.915-29.347c1.112-3.197,0.234-6.869,1.631-9.952c2.452-5.41,8.263-8.444,13.917-10.266
							c14.427-4.65,30.992-3.717,43.823,4.353c3.415,2.148,6.611,4.858,8.486,8.43c2.891,5.507,2.241,12.122,1.516,18.3
							c-0.669,5.702-1.338,11.404-2.008,17.106c-0.77,6.558-2.154,14.086-7.914,17.315c-3.058,1.715-6.929,1.885-9.596,4.161
							C409.738,396.147,411.516,403.729,409.603,409.609z"/>
					</g>
					<g>
						<path style="fill:#3A3029;" d="M446.324,282.506c-1.918-0.177-3.879-0.412-5.904-1.097c-6.393-2.161-11.169-7.176-17.929-9.14
							c-13.673-3.972-30.219-1.825-42.763,4.748c-12.004,6.29-28.822,9.744-39.367,17.723c-4.403,3.332-7.63,8.024-9.955,13.032
							c-8.055,17.352-5.023,39.285,7.437,53.801c2.796,3.257,5.998,6.142,9.319,8.861c6.874,5.627,15.132,12.61,23.673,13.851
							c-0.838-7.366-10.782-29.563-5.994-36.372c6.35-9.028,20.232-9.987,30.246-9.899c11.932,0.106,21.356-4.521,33.212-4.931
							c6.039-0.208,12.941,0.424,17.224-3.839c4.951-4.928,15.015-20.101,17.16-26.567c1.877-5.661-0.254-12.257-4.688-16.245
							C454.167,282.99,450.34,282.876,446.324,282.506z"/>
					</g>
				</g>
			</g>
			<g>
				<polygon style="fill:#677B91;" points="439.661,410.663 465,429 502,541 577,606 563,623 483,575 452,535 				"/>
			</g>
			<g>
				<polygon style="fill:#677B91;" points="341,411 306,427 209,556 218,602 382,656 393,630 271,562 327.877,508 				"/>
			</g>
			<g>
				<g>
					<g>
						<g>
							<path style="fill:#EECA41;" d="M483.962,472.476l-2.256-10.459c-3.617-0.464-7.275-0.762-10.966-0.883
								c-3.691-0.121-7.361-0.064-11,0.162l-2.937,10.288c-3.341,11.702-18.241,15.175-26.412,6.156l-7.215-7.965
								c-6.744,2.81-13.222,6.28-19.355,10.381l2.604,10.391c2.958,11.805-8.21,22.263-19.795,18.537l-10.198-3.28
								c-4.495,5.851-8.382,12.087-11.629,18.632l7.475,7.722c8.464,8.744,4.022,23.385-7.875,25.951l-10.459,2.256
								c-0.464,3.617-0.762,7.275-0.883,10.966c-0.121,3.691-0.064,7.361,0.162,11l10.289,2.937
								c11.702,3.341,15.175,18.241,6.156,26.412l-7.965,7.215c2.81,6.744,6.28,13.222,10.381,19.354l10.391-2.604
								c11.805-2.958,22.263,8.21,18.537,19.795l-3.28,10.198c5.851,4.495,12.087,8.382,18.632,11.628l7.722-7.475
								c8.744-8.464,23.385-4.022,25.951,7.875l2.256,10.459c3.617,0.464,7.275,0.762,10.966,0.883
								c3.691,0.121,7.361,0.064,11-0.162l2.937-10.289c3.341-11.703,18.241-15.175,26.412-6.156l7.215,7.965
								c6.744-2.81,13.222-6.28,19.355-10.381l-2.604-10.391c-2.958-11.805,8.21-22.263,19.795-18.537l10.198,3.28
								c4.495-5.851,8.382-12.087,11.628-18.632l-7.475-7.722c-8.464-8.744-4.022-23.385,7.875-25.951l10.459-2.256
								c0.464-3.617,0.762-7.275,0.883-10.966c0.121-3.691,0.064-7.361-0.162-11l-10.288-2.937
								c-11.703-3.341-15.175-18.241-6.156-26.412l7.965-7.215c-2.81-6.744-6.28-13.222-10.381-19.355l-10.391,2.604
								c-11.805,2.958-22.263-8.21-18.537-19.795l3.28-10.198c-5.851-4.495-12.087-8.382-18.632-11.628l-7.722,7.475
								C501.169,488.815,486.528,484.373,483.962,472.476z M513.648,576.604c-0.846,25.763-22.416,45.962-48.179,45.116
								c-25.763-0.846-45.962-22.416-45.116-48.179c0.846-25.763,22.416-45.962,48.179-45.116
								C494.294,529.27,514.494,550.841,513.648,576.604z"/>
						</g>
					</g>
				</g>
				<g style="opacity:0.29;">
					<g>
						<path style="fill:#A0A4A9;" d="M467,626.285c-28.239,0-51.213-22.974-51.213-51.213c0-28.239,22.974-51.213,51.213-51.213
							s51.213,22.974,51.213,51.213C518.213,603.311,495.239,626.285,467,626.285z M467,533.967
							c-22.665,0-41.105,18.439-41.105,41.105c0,22.665,18.439,41.105,41.105,41.105s41.105-18.439,41.105-41.105
							C508.105,552.407,489.665,533.967,467,533.967z"/>
					</g>
				</g>
				<g>
					<g>
						<path style="fill:#D9B93B;" d="M581.776,567.813l-10.289-2.937c-11.702-3.34-15.175-18.241-6.156-26.412l7.965-7.215
							c-2.81-6.744-6.28-13.222-10.381-19.355l-10.391,2.604c-4.979,1.248-9.713-0.023-13.25-2.773l-34.552,34.552
							c6.539,8.33,10.3,18.914,9.925,30.327c-0.846,25.763-22.416,45.962-48.179,45.116c-10.312-0.338-19.728-4.004-27.265-9.923
							l-36.599,36.599c0.336,2.249,0.182,4.638-0.592,7.047l-3.28,10.198c5.851,4.494,12.087,8.381,18.632,11.628l7.722-7.475
							c8.744-8.464,23.385-4.022,25.951,7.875l2.256,10.459c3.617,0.464,7.274,0.762,10.966,0.883c3.691,0.121,7.361,0.063,11-0.162
							l2.937-10.289c3.341-11.703,18.241-15.175,26.412-6.156l7.215,7.965c6.744-2.81,13.222-6.28,19.355-10.381l-2.604-10.391
							c-2.958-11.805,8.21-22.263,19.795-18.537l10.198,3.28c4.494-5.851,8.382-12.087,11.628-18.632l-7.475-7.722
							c-8.464-8.744-4.022-23.385,7.875-25.951l10.459-2.256c0.464-3.617,0.762-7.274,0.883-10.966
							C582.059,575.122,582.002,571.452,581.776,567.813z"/>
					</g>
				</g>
			</g>
			<g>
				<polygon style="fill:#6D8299;" points="271,562 209,556 218,601 382,656 393,630 				"/>
			</g>
			<g>
				<polygon style="fill:#E7CAAD;" points="392.151,632.006 409,640 409,653 393,663 385.424,661.53 383.261,653.019 				"/>
			</g>
			<g>
				<polygon style="fill:#E7CAAD;" points="579,609 581,595 563,581 554,591 558,616 569.771,620.206 				"/>
			</g>
		</g>
		<g>
			<rect x="704" y="777" style="fill:#E0E0E0;" width="155.1" height="50"/>
		</g>
		<g>
			<rect x="867.9" y="777" style="fill:#E0E0E0;" width="155.1" height="50"/>
		</g>
	</g>
</g>
</svg>
